%TF.GenerationSoftware,KiCad,Pcbnew,5.1.9+dfsg1-1+deb11u1*%
%TF.CreationDate,2023-08-15T12:15:31+02:00*%
%TF.ProjectId,label1,6c616265-6c31-42e6-9b69-6361645f7063,rev?*%
%TF.SameCoordinates,Original*%
%TF.FileFunction,Copper,L2,Bot*%
%TF.FilePolarity,Positive*%
%FSLAX46Y46*%
G04 Gerber Fmt 4.6, Leading zero omitted, Abs format (unit mm)*
G04 Created by KiCad (PCBNEW 5.1.9+dfsg1-1+deb11u1) date 2023-08-15 12:15:31*
%MOMM*%
%LPD*%
G01*
G04 APERTURE LIST*
%TA.AperFunction,NonConductor*%
%ADD10C,0.300000*%
%TD*%
%TA.AperFunction,ComponentPad*%
%ADD11C,1.800000*%
%TD*%
%TA.AperFunction,ComponentPad*%
%ADD12C,2.500000*%
%TD*%
%TA.AperFunction,ComponentPad*%
%ADD13C,0.100000*%
%TD*%
%TA.AperFunction,ComponentPad*%
%ADD14O,1.700000X1.700000*%
%TD*%
%TA.AperFunction,ComponentPad*%
%ADD15R,1.700000X1.700000*%
%TD*%
%TA.AperFunction,ViaPad*%
%ADD16C,0.500000*%
%TD*%
%TA.AperFunction,Conductor*%
%ADD17C,0.720000*%
%TD*%
%TA.AperFunction,Conductor*%
%ADD18C,0.250000*%
%TD*%
%TA.AperFunction,Conductor*%
%ADD19C,0.100000*%
%TD*%
G04 APERTURE END LIST*
D10*
X62142857Y-119278571D02*
X62142857Y-117778571D01*
X61500000Y-119278571D02*
X61500000Y-118492857D01*
X61571428Y-118350000D01*
X61714285Y-118278571D01*
X61928571Y-118278571D01*
X62071428Y-118350000D01*
X62142857Y-118421428D01*
X60142857Y-119278571D02*
X60142857Y-118492857D01*
X60214285Y-118350000D01*
X60357142Y-118278571D01*
X60642857Y-118278571D01*
X60785714Y-118350000D01*
X60142857Y-119207142D02*
X60285714Y-119278571D01*
X60642857Y-119278571D01*
X60785714Y-119207142D01*
X60857142Y-119064285D01*
X60857142Y-118921428D01*
X60785714Y-118778571D01*
X60642857Y-118707142D01*
X60285714Y-118707142D01*
X60142857Y-118635714D01*
X58785714Y-119207142D02*
X58928571Y-119278571D01*
X59214285Y-119278571D01*
X59357142Y-119207142D01*
X59428571Y-119135714D01*
X59500000Y-118992857D01*
X59500000Y-118564285D01*
X59428571Y-118421428D01*
X59357142Y-118350000D01*
X59214285Y-118278571D01*
X58928571Y-118278571D01*
X58785714Y-118350000D01*
X58142857Y-119278571D02*
X58142857Y-117778571D01*
X58000000Y-118707142D02*
X57571428Y-119278571D01*
X57571428Y-118278571D02*
X58142857Y-118850000D01*
X57071428Y-118278571D02*
X56785714Y-119278571D01*
X56500000Y-118564285D01*
X56214285Y-119278571D01*
X55928571Y-118278571D01*
X55357142Y-119278571D02*
X55357142Y-118278571D01*
X55357142Y-117778571D02*
X55428571Y-117850000D01*
X55357142Y-117921428D01*
X55285714Y-117850000D01*
X55357142Y-117778571D01*
X55357142Y-117921428D01*
X54642857Y-118278571D02*
X54642857Y-119278571D01*
X54642857Y-118421428D02*
X54571428Y-118350000D01*
X54428571Y-118278571D01*
X54214285Y-118278571D01*
X54071428Y-118350000D01*
X54000000Y-118492857D01*
X54000000Y-119278571D01*
X53285714Y-119278571D02*
X53285714Y-117778571D01*
X53142857Y-118707142D02*
X52714285Y-119278571D01*
X52714285Y-118278571D02*
X53285714Y-118850000D01*
X51500000Y-119207142D02*
X51642857Y-119278571D01*
X51928571Y-119278571D01*
X52071428Y-119207142D01*
X52142857Y-119064285D01*
X52142857Y-118492857D01*
X52071428Y-118350000D01*
X51928571Y-118278571D01*
X51642857Y-118278571D01*
X51500000Y-118350000D01*
X51428571Y-118492857D01*
X51428571Y-118635714D01*
X52142857Y-118778571D01*
X50571428Y-119278571D02*
X50714285Y-119207142D01*
X50785714Y-119064285D01*
X50785714Y-117778571D01*
X50000000Y-119135714D02*
X49928571Y-119207142D01*
X50000000Y-119278571D01*
X50071428Y-119207142D01*
X50000000Y-119135714D01*
X50000000Y-119278571D01*
X49285714Y-118278571D02*
X49285714Y-119278571D01*
X49285714Y-118421428D02*
X49214285Y-118350000D01*
X49071428Y-118278571D01*
X48857142Y-118278571D01*
X48714285Y-118350000D01*
X48642857Y-118492857D01*
X48642857Y-119278571D01*
X47714285Y-119278571D02*
X47857142Y-119207142D01*
X47928571Y-119064285D01*
X47928571Y-117778571D01*
X65421428Y-116250000D02*
X65492857Y-116178571D01*
X65635714Y-115964285D01*
X65707142Y-115821428D01*
X65778571Y-115607142D01*
X65850000Y-115250000D01*
X65850000Y-114964285D01*
X65778571Y-114607142D01*
X65707142Y-114392857D01*
X65635714Y-114250000D01*
X65492857Y-114035714D01*
X65421428Y-113964285D01*
X64207142Y-115607142D02*
X64350000Y-115678571D01*
X64635714Y-115678571D01*
X64778571Y-115607142D01*
X64850000Y-115535714D01*
X64921428Y-115392857D01*
X64921428Y-114964285D01*
X64850000Y-114821428D01*
X64778571Y-114750000D01*
X64635714Y-114678571D01*
X64350000Y-114678571D01*
X64207142Y-114750000D01*
X63707142Y-116250000D02*
X63635714Y-116178571D01*
X63492857Y-115964285D01*
X63421428Y-115821428D01*
X63350000Y-115607142D01*
X63278571Y-115250000D01*
X63278571Y-114964285D01*
X63350000Y-114607142D01*
X63421428Y-114392857D01*
X63492857Y-114250000D01*
X63635714Y-114035714D01*
X63707142Y-113964285D01*
X62635714Y-114321428D02*
X62564285Y-114250000D01*
X62421428Y-114178571D01*
X62064285Y-114178571D01*
X61921428Y-114250000D01*
X61850000Y-114321428D01*
X61778571Y-114464285D01*
X61778571Y-114607142D01*
X61850000Y-114821428D01*
X62707142Y-115678571D01*
X61778571Y-115678571D01*
X60850000Y-114178571D02*
X60707142Y-114178571D01*
X60564285Y-114250000D01*
X60492857Y-114321428D01*
X60421428Y-114464285D01*
X60350000Y-114750000D01*
X60350000Y-115107142D01*
X60421428Y-115392857D01*
X60492857Y-115535714D01*
X60564285Y-115607142D01*
X60707142Y-115678571D01*
X60850000Y-115678571D01*
X60992857Y-115607142D01*
X61064285Y-115535714D01*
X61135714Y-115392857D01*
X61207142Y-115107142D01*
X61207142Y-114750000D01*
X61135714Y-114464285D01*
X61064285Y-114321428D01*
X60992857Y-114250000D01*
X60850000Y-114178571D01*
X59778571Y-114321428D02*
X59707142Y-114250000D01*
X59564285Y-114178571D01*
X59207142Y-114178571D01*
X59064285Y-114250000D01*
X58992857Y-114321428D01*
X58921428Y-114464285D01*
X58921428Y-114607142D01*
X58992857Y-114821428D01*
X59850000Y-115678571D01*
X58921428Y-115678571D01*
X58421428Y-114178571D02*
X57492857Y-114178571D01*
X57992857Y-114750000D01*
X57778571Y-114750000D01*
X57635714Y-114821428D01*
X57564285Y-114892857D01*
X57492857Y-115035714D01*
X57492857Y-115392857D01*
X57564285Y-115535714D01*
X57635714Y-115607142D01*
X57778571Y-115678571D01*
X58207142Y-115678571D01*
X58350000Y-115607142D01*
X58421428Y-115535714D01*
X55921428Y-114178571D02*
X55064285Y-114178571D01*
X55492857Y-115678571D02*
X55492857Y-114178571D01*
X54564285Y-115678571D02*
X54564285Y-114178571D01*
X53921428Y-115678571D02*
X53921428Y-114892857D01*
X53992857Y-114750000D01*
X54135714Y-114678571D01*
X54350000Y-114678571D01*
X54492857Y-114750000D01*
X54564285Y-114821428D01*
X52635714Y-115607142D02*
X52778571Y-115678571D01*
X53064285Y-115678571D01*
X53207142Y-115607142D01*
X53278571Y-115464285D01*
X53278571Y-114892857D01*
X53207142Y-114750000D01*
X53064285Y-114678571D01*
X52778571Y-114678571D01*
X52635714Y-114750000D01*
X52564285Y-114892857D01*
X52564285Y-115035714D01*
X53278571Y-115178571D01*
X51707142Y-115678571D02*
X51850000Y-115607142D01*
X51921428Y-115535714D01*
X51992857Y-115392857D01*
X51992857Y-114964285D01*
X51921428Y-114821428D01*
X51850000Y-114750000D01*
X51707142Y-114678571D01*
X51492857Y-114678571D01*
X51350000Y-114750000D01*
X51278571Y-114821428D01*
X51207142Y-114964285D01*
X51207142Y-115392857D01*
X51278571Y-115535714D01*
X51350000Y-115607142D01*
X51492857Y-115678571D01*
X51707142Y-115678571D01*
X48921428Y-114892857D02*
X48707142Y-114964285D01*
X48635714Y-115035714D01*
X48564285Y-115178571D01*
X48564285Y-115392857D01*
X48635714Y-115535714D01*
X48707142Y-115607142D01*
X48850000Y-115678571D01*
X49421428Y-115678571D01*
X49421428Y-114178571D01*
X48921428Y-114178571D01*
X48778571Y-114250000D01*
X48707142Y-114321428D01*
X48635714Y-114464285D01*
X48635714Y-114607142D01*
X48707142Y-114750000D01*
X48778571Y-114821428D01*
X48921428Y-114892857D01*
X49421428Y-114892857D01*
X47707142Y-115678571D02*
X47850000Y-115607142D01*
X47921428Y-115535714D01*
X47992857Y-115392857D01*
X47992857Y-114964285D01*
X47921428Y-114821428D01*
X47850000Y-114750000D01*
X47707142Y-114678571D01*
X47492857Y-114678571D01*
X47350000Y-114750000D01*
X47278571Y-114821428D01*
X47207142Y-114964285D01*
X47207142Y-115392857D01*
X47278571Y-115535714D01*
X47350000Y-115607142D01*
X47492857Y-115678571D01*
X47707142Y-115678571D01*
X46564285Y-115678571D02*
X46564285Y-114678571D01*
X46564285Y-114964285D02*
X46492857Y-114821428D01*
X46421428Y-114750000D01*
X46278571Y-114678571D01*
X46135714Y-114678571D01*
X45635714Y-115678571D02*
X45635714Y-114678571D01*
X45635714Y-114821428D02*
X45564285Y-114750000D01*
X45421428Y-114678571D01*
X45207142Y-114678571D01*
X45064285Y-114750000D01*
X44992857Y-114892857D01*
X44992857Y-115678571D01*
X44992857Y-114892857D02*
X44921428Y-114750000D01*
X44778571Y-114678571D01*
X44564285Y-114678571D01*
X44421428Y-114750000D01*
X44350000Y-114892857D01*
X44350000Y-115678571D01*
D11*
%TO.P,U2,3*%
%TO.N,+5V*%
X69592102Y-39407898D03*
%TO.P,U2,2*%
%TO.N,GND*%
X67796051Y-41203949D03*
%TO.P,U2,1*%
%TO.N,Net-(U1-Pad10)*%
%TA.AperFunction,ComponentPad*%
G36*
G01*
X65824355Y-44097147D02*
X64902853Y-43175645D01*
G75*
G02*
X64902853Y-42824355I175645J175645D01*
G01*
X65824355Y-41902853D01*
G75*
G02*
X66175645Y-41902853I175645J-175645D01*
G01*
X67097147Y-42824355D01*
G75*
G02*
X67097147Y-43175645I-175645J-175645D01*
G01*
X66175645Y-44097147D01*
G75*
G02*
X65824355Y-44097147I-175645J175645D01*
G01*
G37*
%TD.AperFunction*%
%TD*%
D12*
%TO.P,J2,2*%
%TO.N,+5V*%
X71907898Y-42907898D03*
%TA.AperFunction,ComponentPad*%
D13*
%TO.P,J2,1*%
%TO.N,GND*%
G36*
X77267767Y-46500000D02*
G01*
X75500000Y-48267767D01*
X73732233Y-46500000D01*
X75500000Y-44732233D01*
X77267767Y-46500000D01*
G37*
%TD.AperFunction*%
%TD*%
D14*
%TO.P,J1,5*%
%TO.N,+5V*%
X49920000Y-54500000D03*
%TO.P,J1,4*%
%TO.N,Net-(J1-Pad4)*%
X52460000Y-54500000D03*
%TO.P,J1,3*%
%TO.N,Net-(J1-Pad3)*%
X55000000Y-54500000D03*
%TO.P,J1,2*%
%TO.N,Net-(J1-Pad2)*%
X57540000Y-54500000D03*
D15*
%TO.P,J1,1*%
%TO.N,GND*%
X60080000Y-54500000D03*
%TD*%
D16*
%TO.N,GND*%
X56500000Y-44000000D03*
X77500000Y-57500000D03*
X32500000Y-57500000D03*
X32000000Y-100500000D03*
X78000000Y-101000000D03*
X78500000Y-95000000D03*
X78500000Y-75000000D03*
X31400000Y-72900000D03*
X31400000Y-95700000D03*
X53100000Y-51300000D03*
X78200000Y-118500000D03*
X31700000Y-118400000D03*
X31700000Y-107600000D03*
X78400000Y-107200000D03*
X54700000Y-122100000D03*
X62200000Y-35300000D03*
X64396051Y-41203949D03*
X32800000Y-46700000D03*
X43800000Y-35800000D03*
X49100000Y-31000000D03*
X60400000Y-31000000D03*
X64100000Y-53700000D03*
X66200000Y-52200000D03*
X43800000Y-52300000D03*
%TO.N,Net-(D1-Pad1)*%
X79500000Y-77500000D03*
X79500000Y-102500000D03*
X79500004Y-54750000D03*
X61499998Y-52999996D03*
%TO.N,Net-(D12-Pad2)*%
X71750000Y-51250000D03*
X65500000Y-51250000D03*
X71750000Y-48000000D03*
X61250000Y-52000000D03*
%TO.N,Net-(D13-Pad2)*%
X38000000Y-51250000D03*
X44250000Y-51250000D03*
X50500014Y-51250000D03*
X37250000Y-48000000D03*
%TO.N,Net-(D16-Pad2)*%
X50500000Y-45500000D03*
X48250000Y-45500000D03*
%TO.N,Net-(D10-Pad1)*%
X80500000Y-60000000D03*
X80500000Y-85000000D03*
X65500000Y-53250000D03*
X78000000Y-120500026D03*
%TO.N,Net-(D17-Pad1)*%
X72000000Y-121500000D03*
X72250000Y-52250000D03*
X81500000Y-66250000D03*
X81500000Y-110000000D03*
X81500000Y-79500000D03*
%TO.N,Net-(D25-Pad1)*%
X65500000Y-122500000D03*
X78000000Y-51250000D03*
X82500000Y-116000000D03*
X82500000Y-91000000D03*
X82500000Y-67000000D03*
%TO.N,Net-(D33-Pad1)*%
X56500000Y-123500000D03*
X83500000Y-72750000D03*
X82000000Y-122500000D03*
X83500000Y-97750000D03*
X79000000Y-50250000D03*
%TO.N,+5V*%
X53249998Y-43999998D03*
X56749998Y-40499998D03*
%TO.N,Net-(D5-Pad1)*%
X53250000Y-123500000D03*
X28000000Y-122750000D03*
X26500000Y-97750000D03*
X26500000Y-72750000D03*
X31000000Y-50250000D03*
%TO.N,Net-(D13-Pad1)*%
X46750000Y-122500000D03*
X32000000Y-51250000D03*
X27500000Y-116000000D03*
X27500000Y-91000000D03*
X27500000Y-67000000D03*
%TO.N,Net-(D21-Pad1)*%
X38000000Y-121500000D03*
X38000000Y-52250000D03*
X28500000Y-110000000D03*
X28500000Y-66250000D03*
X28500000Y-79500000D03*
%TO.N,Net-(D29-Pad1)*%
X32000000Y-120500000D03*
X44250000Y-53250000D03*
X29500000Y-59750000D03*
X29500000Y-84750000D03*
%TO.N,Net-(D37-Pad1)*%
X30500000Y-102500000D03*
X30500000Y-54500000D03*
X30500000Y-77500000D03*
X50474996Y-52275000D03*
%TO.N,Net-(J1-Pad2)*%
X56750000Y-48500000D03*
X37499996Y-46000000D03*
%TO.N,Net-(U1-Pad10)*%
X60000000Y-47000000D03*
%TD*%
D17*
%TO.N,GND*%
X59296051Y-41203949D02*
X56500000Y-44000000D01*
X67796051Y-41203949D02*
X64396051Y-41203949D01*
X71250000Y-46500000D02*
X75500000Y-46500000D01*
X67796051Y-43046051D02*
X71250000Y-46500000D01*
X67796051Y-41203949D02*
X67796051Y-43046051D01*
X58000000Y-45500000D02*
X56500000Y-44000000D01*
X58000000Y-52420000D02*
X58000000Y-45500000D01*
X60080000Y-54500000D02*
X58000000Y-52420000D01*
X64396051Y-41203949D02*
X59296051Y-41203949D01*
%TO.N,Net-(D1-Pad1)*%
X79500000Y-77500000D02*
X79500000Y-100500000D01*
X79500000Y-100500000D02*
X79500000Y-102500000D01*
X79500000Y-77500000D02*
X79500000Y-54750004D01*
X79500000Y-54750004D02*
X79500004Y-54750000D01*
X63250002Y-54750000D02*
X61499998Y-52999996D01*
X79500004Y-54750000D02*
X63250002Y-54750000D01*
%TO.N,Net-(D12-Pad2)*%
X65500000Y-51250000D02*
X71750000Y-51250000D01*
X71750000Y-48000000D02*
X71750000Y-51250000D01*
X64750000Y-52000000D02*
X61250000Y-52000000D01*
X65500000Y-51250000D02*
X64750000Y-52000000D01*
%TO.N,Net-(D13-Pad2)*%
X38000000Y-51250000D02*
X50500000Y-51250000D01*
X37250000Y-50500000D02*
X38000000Y-51250000D01*
X37250000Y-48000000D02*
X37250000Y-50500000D01*
%TO.N,Net-(D16-Pad2)*%
X50500000Y-45500000D02*
X48250000Y-45500000D01*
%TO.N,Net-(D10-Pad1)*%
X80500000Y-85000000D02*
X80500000Y-60000000D01*
X79500000Y-53250000D02*
X65500000Y-53250000D01*
X80500000Y-54250000D02*
X79500000Y-53250000D01*
X80500000Y-60000000D02*
X80500000Y-54250000D01*
X79499974Y-120500026D02*
X78000000Y-120500026D01*
X80500000Y-119500000D02*
X79499974Y-120500026D01*
X80500000Y-85000000D02*
X80500000Y-119500000D01*
%TO.N,Net-(D17-Pad1)*%
X72000000Y-121500000D02*
X80000000Y-121500000D01*
X80000000Y-121500000D02*
X81500000Y-120000000D01*
X81500000Y-120000000D02*
X81500000Y-115500000D01*
X80000000Y-52250000D02*
X72250000Y-52250000D01*
X81500000Y-53750000D02*
X80000000Y-52250000D01*
X81500000Y-66250000D02*
X81500000Y-53750000D01*
X81500000Y-110000000D02*
X81500000Y-99000000D01*
X81500000Y-115500000D02*
X81500000Y-110000000D01*
X81500000Y-79500000D02*
X81500000Y-66250000D01*
X81500000Y-99000000D02*
X81500000Y-79500000D01*
%TO.N,Net-(D25-Pad1)*%
X80500000Y-122500000D02*
X82500000Y-120500000D01*
X65500000Y-122500000D02*
X80500000Y-122500000D01*
X82500000Y-120500000D02*
X82500000Y-116000000D01*
X82500000Y-116000000D02*
X82500000Y-91000000D01*
X82500000Y-91000000D02*
X82500000Y-67000000D01*
X80448908Y-51250000D02*
X78000000Y-51250000D01*
X82500000Y-67000000D02*
X82500000Y-53301092D01*
X82500000Y-53301092D02*
X80448908Y-51250000D01*
%TO.N,Net-(D33-Pad1)*%
X56500000Y-123500000D02*
X81000000Y-123500000D01*
X82000000Y-122500000D02*
X83500000Y-121000000D01*
X81000000Y-123500000D02*
X82000000Y-122500000D01*
X83500000Y-97750000D02*
X83500000Y-72750000D01*
X83500000Y-121000000D02*
X83500000Y-97750000D01*
X83500000Y-52896447D02*
X80853553Y-50250000D01*
X83500000Y-72750000D02*
X83500000Y-52896447D01*
X80853553Y-50250000D02*
X79000000Y-50250000D01*
%TO.N,+5V*%
X71907898Y-41723694D02*
X69592102Y-39407898D01*
X71907898Y-42907898D02*
X71907898Y-41723694D01*
X69592102Y-39407898D02*
X57842098Y-39407898D01*
X56749998Y-40499998D02*
X53249998Y-43999998D01*
X57842098Y-39407898D02*
X56749998Y-40499998D01*
%TO.N,Net-(D5-Pad1)*%
X53250000Y-123500000D02*
X28750000Y-123500000D01*
X28000000Y-122750000D02*
X26500000Y-121250000D01*
X28750000Y-123500000D02*
X28000000Y-122750000D01*
X26500000Y-121250000D02*
X26500000Y-97750000D01*
X26500000Y-97750000D02*
X26500000Y-72750000D01*
X28750000Y-50250000D02*
X31000000Y-50250000D01*
X26500000Y-52500000D02*
X28750000Y-50250000D01*
X26500000Y-72750000D02*
X26500000Y-52500000D01*
%TO.N,Net-(D13-Pad1)*%
X46750000Y-122500000D02*
X29250000Y-122500000D01*
X29250000Y-122500000D02*
X27500000Y-120750000D01*
X29250000Y-51250000D02*
X32000000Y-51250000D01*
X27500000Y-53000000D02*
X29250000Y-51250000D01*
X27500000Y-116000000D02*
X27500000Y-98500000D01*
X27500000Y-120750000D02*
X27500000Y-116000000D01*
X27500000Y-91000000D02*
X27500000Y-87750000D01*
X27500000Y-98500000D02*
X27500000Y-91000000D01*
X27500000Y-67000000D02*
X27500000Y-53000000D01*
X27500000Y-87750000D02*
X27500000Y-67000000D01*
%TO.N,Net-(D21-Pad1)*%
X38000000Y-121500000D02*
X29750000Y-121500000D01*
X29750000Y-121500000D02*
X28500000Y-120250000D01*
X28500000Y-120250000D02*
X28500000Y-113750000D01*
X28500000Y-53750000D02*
X28500000Y-53500000D01*
X29750000Y-52250000D02*
X38000000Y-52250000D01*
X28500000Y-53500000D02*
X29750000Y-52250000D01*
X28500000Y-113750000D02*
X28500000Y-110000000D01*
X28500000Y-66250000D02*
X28500000Y-53750000D01*
X28500000Y-79500000D02*
X28500000Y-66250000D01*
X28500000Y-110000000D02*
X28500000Y-79500000D01*
%TO.N,Net-(D29-Pad1)*%
X32000000Y-120500000D02*
X30250000Y-120500000D01*
X30250000Y-120500000D02*
X29500000Y-119750000D01*
X29500000Y-119750000D02*
X29500000Y-117250000D01*
X29500000Y-59750000D02*
X29500000Y-54000000D01*
X29500000Y-54000000D02*
X30250000Y-53250000D01*
X30250000Y-53250000D02*
X44250000Y-53250000D01*
X29500000Y-84750000D02*
X29500000Y-59750000D01*
X29500000Y-117250000D02*
X29500000Y-84750000D01*
%TO.N,Net-(D37-Pad1)*%
X30500000Y-77500000D02*
X30500000Y-54500000D01*
X30500000Y-102500000D02*
X30500000Y-77500000D01*
X44750000Y-54250000D02*
X46725000Y-52275000D01*
X30750000Y-54250000D02*
X44750000Y-54250000D01*
X46725000Y-52275000D02*
X50474996Y-52275000D01*
X30500000Y-54500000D02*
X30750000Y-54250000D01*
%TO.N,Net-(J1-Pad2)*%
X56750000Y-48500000D02*
X39999996Y-48500000D01*
X39999996Y-48500000D02*
X37499996Y-46000000D01*
%TO.N,Net-(U1-Pad10)*%
X64000000Y-43000000D02*
X60000000Y-47000000D01*
X66000000Y-43000000D02*
X64000000Y-43000000D01*
%TD*%
D18*
%TO.N,GND*%
X55751120Y-25557380D02*
X56554573Y-25759101D01*
X57310792Y-26097278D01*
X57996800Y-26561632D01*
X58602067Y-27148051D01*
X58670312Y-27229384D01*
X58671890Y-27232155D01*
X58710559Y-27276785D01*
X82739076Y-50053817D01*
X82743211Y-50057030D01*
X83366887Y-50617996D01*
X83868304Y-51263717D01*
X84247453Y-51988034D01*
X84492340Y-52768035D01*
X84597014Y-53593131D01*
X84600001Y-53753777D01*
X84600000Y-119982191D01*
X84525736Y-120814307D01*
X84310007Y-121602878D01*
X83958044Y-122340783D01*
X83480972Y-123004698D01*
X82893876Y-123573634D01*
X82215302Y-124029616D01*
X81466706Y-124358228D01*
X80668674Y-124549819D01*
X79985330Y-124600000D01*
X30017809Y-124600000D01*
X29185693Y-124525736D01*
X28397122Y-124310007D01*
X27659217Y-123958044D01*
X26995302Y-123480972D01*
X26426366Y-122893876D01*
X25970384Y-122215302D01*
X25641772Y-121466706D01*
X25450181Y-120668674D01*
X25400000Y-119985330D01*
X25400000Y-53767822D01*
X25474265Y-52935695D01*
X25593457Y-52500000D01*
X25761444Y-52500000D01*
X25765001Y-52536115D01*
X25765000Y-72786104D01*
X25765001Y-72786114D01*
X25765000Y-97786104D01*
X25765001Y-97786114D01*
X25765000Y-121213895D01*
X25761444Y-121250000D01*
X25774978Y-121387413D01*
X25775635Y-121394084D01*
X25817663Y-121532632D01*
X25885913Y-121660319D01*
X25977762Y-121772237D01*
X26005808Y-121795254D01*
X27505806Y-123295253D01*
X27505811Y-123295257D01*
X28204746Y-123994193D01*
X28227762Y-124022238D01*
X28339680Y-124114087D01*
X28467367Y-124182337D01*
X28556345Y-124209328D01*
X28605914Y-124224365D01*
X28620132Y-124225765D01*
X28713895Y-124235000D01*
X28713902Y-124235000D01*
X28749999Y-124238555D01*
X28786096Y-124235000D01*
X53286105Y-124235000D01*
X53394085Y-124224365D01*
X53532633Y-124182337D01*
X53660320Y-124114087D01*
X53772238Y-124022238D01*
X53864087Y-123910320D01*
X53932337Y-123782633D01*
X53974365Y-123644085D01*
X53988556Y-123500000D01*
X55761444Y-123500000D01*
X55775635Y-123644085D01*
X55817663Y-123782633D01*
X55885913Y-123910320D01*
X55977762Y-124022238D01*
X56089680Y-124114087D01*
X56217367Y-124182337D01*
X56355915Y-124224365D01*
X56463895Y-124235000D01*
X80963895Y-124235000D01*
X81000000Y-124238556D01*
X81036105Y-124235000D01*
X81144085Y-124224365D01*
X81282633Y-124182337D01*
X81410320Y-124114087D01*
X81522238Y-124022238D01*
X81545258Y-123994188D01*
X82545253Y-122994194D01*
X82545257Y-122994189D01*
X83994197Y-121545250D01*
X84022237Y-121522238D01*
X84045250Y-121494197D01*
X84045253Y-121494194D01*
X84114086Y-121410321D01*
X84114087Y-121410320D01*
X84182337Y-121282633D01*
X84224365Y-121144085D01*
X84235000Y-121036105D01*
X84235000Y-121036096D01*
X84238555Y-121000001D01*
X84235000Y-120963906D01*
X84235000Y-52932541D01*
X84238555Y-52896446D01*
X84235000Y-52860351D01*
X84235000Y-52860342D01*
X84224365Y-52752362D01*
X84182337Y-52613814D01*
X84114087Y-52486127D01*
X84022238Y-52374209D01*
X83994193Y-52351193D01*
X81398812Y-49755812D01*
X81375791Y-49727762D01*
X81263873Y-49635913D01*
X81136186Y-49567663D01*
X80997638Y-49525635D01*
X80889658Y-49515000D01*
X80853553Y-49511444D01*
X80817448Y-49515000D01*
X78963895Y-49515000D01*
X78855915Y-49525635D01*
X78717367Y-49567663D01*
X78589680Y-49635913D01*
X78477762Y-49727762D01*
X78385913Y-49839680D01*
X78317663Y-49967367D01*
X78275635Y-50105915D01*
X78261444Y-50250000D01*
X78275635Y-50394085D01*
X78312314Y-50515000D01*
X77963895Y-50515000D01*
X77855915Y-50525635D01*
X77717367Y-50567663D01*
X77589680Y-50635913D01*
X77477762Y-50727762D01*
X77385913Y-50839680D01*
X77317663Y-50967367D01*
X77275635Y-51105915D01*
X77261444Y-51250000D01*
X77275635Y-51394085D01*
X77312314Y-51515000D01*
X72437686Y-51515000D01*
X72474365Y-51394085D01*
X72488556Y-51250000D01*
X72485000Y-51213895D01*
X72485000Y-47963895D01*
X72474365Y-47855915D01*
X72432337Y-47717367D01*
X72421805Y-47697662D01*
X74479115Y-47697662D01*
X74479115Y-47847922D01*
X75198026Y-48569741D01*
X75262740Y-48622851D01*
X75336573Y-48662315D01*
X75416686Y-48686617D01*
X75500000Y-48694823D01*
X75583314Y-48686617D01*
X75663427Y-48662315D01*
X75737260Y-48622851D01*
X75801974Y-48569741D01*
X76520885Y-47847922D01*
X76520885Y-47697662D01*
X75500000Y-46676777D01*
X74479115Y-47697662D01*
X72421805Y-47697662D01*
X72364087Y-47589680D01*
X72272237Y-47477762D01*
X72160319Y-47385913D01*
X72032632Y-47317663D01*
X71894084Y-47275635D01*
X71750000Y-47261444D01*
X71605915Y-47275635D01*
X71467367Y-47317663D01*
X71339680Y-47385913D01*
X71227762Y-47477763D01*
X71135913Y-47589681D01*
X71067663Y-47717368D01*
X71025635Y-47855916D01*
X71015000Y-47963896D01*
X71015001Y-50515000D01*
X65536096Y-50515000D01*
X65499999Y-50511445D01*
X65463902Y-50515000D01*
X65463895Y-50515000D01*
X65370132Y-50524235D01*
X65355914Y-50525635D01*
X65332842Y-50532634D01*
X65217367Y-50567663D01*
X65089680Y-50635913D01*
X64977762Y-50727762D01*
X64954747Y-50755806D01*
X64445554Y-51265000D01*
X61213895Y-51265000D01*
X61105915Y-51275635D01*
X60967367Y-51317663D01*
X60839680Y-51385913D01*
X60727762Y-51477762D01*
X60635913Y-51589680D01*
X60567663Y-51717367D01*
X60525635Y-51855915D01*
X60511444Y-52000000D01*
X60525635Y-52144085D01*
X60567663Y-52282633D01*
X60635913Y-52410320D01*
X60727762Y-52522238D01*
X60839680Y-52614087D01*
X60865490Y-52627883D01*
X60817662Y-52717363D01*
X60775633Y-52855911D01*
X60761442Y-52999996D01*
X60775633Y-53144081D01*
X60799688Y-53223377D01*
X60311250Y-53225000D01*
X60205000Y-53331250D01*
X60205000Y-54375000D01*
X61248750Y-54375000D01*
X61355000Y-54268750D01*
X61356240Y-53895684D01*
X62704748Y-55244193D01*
X62727764Y-55272238D01*
X62839682Y-55364087D01*
X62967369Y-55432337D01*
X63105917Y-55474365D01*
X63213897Y-55485000D01*
X63213906Y-55485000D01*
X63250001Y-55488555D01*
X63286096Y-55485000D01*
X78765001Y-55485000D01*
X78765000Y-77463895D01*
X78765000Y-77463896D01*
X78765001Y-100463886D01*
X78765000Y-100463896D01*
X78765001Y-102536105D01*
X78775636Y-102644085D01*
X78817664Y-102782633D01*
X78885914Y-102910320D01*
X78977763Y-103022238D01*
X79089681Y-103114087D01*
X79217368Y-103182337D01*
X79355916Y-103224365D01*
X79500000Y-103238556D01*
X79644085Y-103224365D01*
X79765001Y-103187686D01*
X79765001Y-119195552D01*
X79195528Y-119765026D01*
X77963895Y-119765026D01*
X77855915Y-119775661D01*
X77717367Y-119817689D01*
X77589680Y-119885939D01*
X77477762Y-119977788D01*
X77385913Y-120089706D01*
X77317663Y-120217393D01*
X77275635Y-120355941D01*
X77261444Y-120500026D01*
X77275635Y-120644111D01*
X77312306Y-120765000D01*
X71963895Y-120765000D01*
X71855915Y-120775635D01*
X71717367Y-120817663D01*
X71589680Y-120885913D01*
X71477762Y-120977762D01*
X71385913Y-121089680D01*
X71317663Y-121217367D01*
X71275635Y-121355915D01*
X71261444Y-121500000D01*
X71275635Y-121644085D01*
X71312314Y-121765000D01*
X65463895Y-121765000D01*
X65355915Y-121775635D01*
X65217367Y-121817663D01*
X65089680Y-121885913D01*
X64977762Y-121977762D01*
X64885913Y-122089680D01*
X64817663Y-122217367D01*
X64775635Y-122355915D01*
X64761444Y-122500000D01*
X64775635Y-122644085D01*
X64812314Y-122765000D01*
X56463895Y-122765000D01*
X56355915Y-122775635D01*
X56217367Y-122817663D01*
X56089680Y-122885913D01*
X55977762Y-122977762D01*
X55885913Y-123089680D01*
X55817663Y-123217367D01*
X55775635Y-123355915D01*
X55761444Y-123500000D01*
X53988556Y-123500000D01*
X53974365Y-123355915D01*
X53932337Y-123217367D01*
X53864087Y-123089680D01*
X53772238Y-122977762D01*
X53660320Y-122885913D01*
X53532633Y-122817663D01*
X53394085Y-122775635D01*
X53286105Y-122765000D01*
X47437686Y-122765000D01*
X47474365Y-122644085D01*
X47488556Y-122500000D01*
X47474365Y-122355915D01*
X47432337Y-122217367D01*
X47364087Y-122089680D01*
X47272238Y-121977762D01*
X47160320Y-121885913D01*
X47032633Y-121817663D01*
X46894085Y-121775635D01*
X46786105Y-121765000D01*
X38687686Y-121765000D01*
X38724365Y-121644085D01*
X38738556Y-121500000D01*
X38724365Y-121355915D01*
X38682337Y-121217367D01*
X38614087Y-121089680D01*
X38522238Y-120977762D01*
X38410320Y-120885913D01*
X38282633Y-120817663D01*
X38144085Y-120775635D01*
X38036105Y-120765000D01*
X32687686Y-120765000D01*
X32724365Y-120644085D01*
X32738556Y-120500000D01*
X32724365Y-120355915D01*
X32682337Y-120217367D01*
X32614087Y-120089680D01*
X32522238Y-119977762D01*
X32410320Y-119885913D01*
X32282633Y-119817663D01*
X32144085Y-119775635D01*
X32036105Y-119765000D01*
X30554447Y-119765000D01*
X30235000Y-119445554D01*
X30235000Y-117070000D01*
X46975000Y-117070000D01*
X46975000Y-120370000D01*
X63025000Y-120370000D01*
X63025000Y-117070000D01*
X46975000Y-117070000D01*
X30235000Y-117070000D01*
X30235000Y-113470000D01*
X43467857Y-113470000D01*
X43467857Y-116770000D01*
X66732143Y-116770000D01*
X66732143Y-113470000D01*
X43467857Y-113470000D01*
X30235000Y-113470000D01*
X30235000Y-103187686D01*
X30355915Y-103224365D01*
X30500000Y-103238556D01*
X30644084Y-103224365D01*
X30782632Y-103182337D01*
X30910319Y-103114087D01*
X31022237Y-103022238D01*
X31114087Y-102910320D01*
X31182337Y-102782633D01*
X31224365Y-102644085D01*
X31235000Y-102536105D01*
X31235000Y-54985000D01*
X44713895Y-54985000D01*
X44750000Y-54988556D01*
X44786105Y-54985000D01*
X44894085Y-54974365D01*
X45032633Y-54932337D01*
X45160320Y-54864087D01*
X45272238Y-54772238D01*
X45295258Y-54744188D01*
X45660098Y-54379348D01*
X48695000Y-54379348D01*
X48695000Y-54620652D01*
X48742076Y-54857319D01*
X48834419Y-55080255D01*
X48968481Y-55280892D01*
X49139108Y-55451519D01*
X49339745Y-55585581D01*
X49562681Y-55677924D01*
X49799348Y-55725000D01*
X50040652Y-55725000D01*
X50277319Y-55677924D01*
X50500255Y-55585581D01*
X50700892Y-55451519D01*
X50871519Y-55280892D01*
X51005581Y-55080255D01*
X51097924Y-54857319D01*
X51145000Y-54620652D01*
X51145000Y-54379348D01*
X51235000Y-54379348D01*
X51235000Y-54620652D01*
X51282076Y-54857319D01*
X51374419Y-55080255D01*
X51508481Y-55280892D01*
X51679108Y-55451519D01*
X51879745Y-55585581D01*
X52102681Y-55677924D01*
X52339348Y-55725000D01*
X52580652Y-55725000D01*
X52817319Y-55677924D01*
X53040255Y-55585581D01*
X53240892Y-55451519D01*
X53411519Y-55280892D01*
X53545581Y-55080255D01*
X53637924Y-54857319D01*
X53685000Y-54620652D01*
X53685000Y-54379348D01*
X53775000Y-54379348D01*
X53775000Y-54620652D01*
X53822076Y-54857319D01*
X53914419Y-55080255D01*
X54048481Y-55280892D01*
X54219108Y-55451519D01*
X54419745Y-55585581D01*
X54642681Y-55677924D01*
X54879348Y-55725000D01*
X55120652Y-55725000D01*
X55357319Y-55677924D01*
X55580255Y-55585581D01*
X55780892Y-55451519D01*
X55951519Y-55280892D01*
X56085581Y-55080255D01*
X56177924Y-54857319D01*
X56225000Y-54620652D01*
X56225000Y-54379348D01*
X56315000Y-54379348D01*
X56315000Y-54620652D01*
X56362076Y-54857319D01*
X56454419Y-55080255D01*
X56588481Y-55280892D01*
X56759108Y-55451519D01*
X56959745Y-55585581D01*
X57182681Y-55677924D01*
X57419348Y-55725000D01*
X57660652Y-55725000D01*
X57897319Y-55677924D01*
X58120255Y-55585581D01*
X58320892Y-55451519D01*
X58422411Y-55350000D01*
X58802944Y-55350000D01*
X58811150Y-55433314D01*
X58835452Y-55513427D01*
X58874916Y-55587260D01*
X58928026Y-55651974D01*
X58992740Y-55705084D01*
X59066573Y-55744548D01*
X59146686Y-55768850D01*
X59230000Y-55777056D01*
X59848750Y-55775000D01*
X59955000Y-55668750D01*
X59955000Y-54625000D01*
X60205000Y-54625000D01*
X60205000Y-55668750D01*
X60311250Y-55775000D01*
X60930000Y-55777056D01*
X61013314Y-55768850D01*
X61093427Y-55744548D01*
X61167260Y-55705084D01*
X61231974Y-55651974D01*
X61285084Y-55587260D01*
X61324548Y-55513427D01*
X61348850Y-55433314D01*
X61357056Y-55350000D01*
X61355000Y-54731250D01*
X61248750Y-54625000D01*
X60205000Y-54625000D01*
X59955000Y-54625000D01*
X58911250Y-54625000D01*
X58805000Y-54731250D01*
X58802944Y-55350000D01*
X58422411Y-55350000D01*
X58491519Y-55280892D01*
X58625581Y-55080255D01*
X58717924Y-54857319D01*
X58765000Y-54620652D01*
X58765000Y-54379348D01*
X58717924Y-54142681D01*
X58625581Y-53919745D01*
X58491519Y-53719108D01*
X58422411Y-53650000D01*
X58802944Y-53650000D01*
X58805000Y-54268750D01*
X58911250Y-54375000D01*
X59955000Y-54375000D01*
X59955000Y-53331250D01*
X59848750Y-53225000D01*
X59230000Y-53222944D01*
X59146686Y-53231150D01*
X59066573Y-53255452D01*
X58992740Y-53294916D01*
X58928026Y-53348026D01*
X58874916Y-53412740D01*
X58835452Y-53486573D01*
X58811150Y-53566686D01*
X58802944Y-53650000D01*
X58422411Y-53650000D01*
X58320892Y-53548481D01*
X58120255Y-53414419D01*
X57897319Y-53322076D01*
X57660652Y-53275000D01*
X57419348Y-53275000D01*
X57182681Y-53322076D01*
X56959745Y-53414419D01*
X56759108Y-53548481D01*
X56588481Y-53719108D01*
X56454419Y-53919745D01*
X56362076Y-54142681D01*
X56315000Y-54379348D01*
X56225000Y-54379348D01*
X56177924Y-54142681D01*
X56085581Y-53919745D01*
X55951519Y-53719108D01*
X55780892Y-53548481D01*
X55580255Y-53414419D01*
X55357319Y-53322076D01*
X55120652Y-53275000D01*
X54879348Y-53275000D01*
X54642681Y-53322076D01*
X54419745Y-53414419D01*
X54219108Y-53548481D01*
X54048481Y-53719108D01*
X53914419Y-53919745D01*
X53822076Y-54142681D01*
X53775000Y-54379348D01*
X53685000Y-54379348D01*
X53637924Y-54142681D01*
X53545581Y-53919745D01*
X53411519Y-53719108D01*
X53240892Y-53548481D01*
X53040255Y-53414419D01*
X52817319Y-53322076D01*
X52580652Y-53275000D01*
X52339348Y-53275000D01*
X52102681Y-53322076D01*
X51879745Y-53414419D01*
X51679108Y-53548481D01*
X51508481Y-53719108D01*
X51374419Y-53919745D01*
X51282076Y-54142681D01*
X51235000Y-54379348D01*
X51145000Y-54379348D01*
X51097924Y-54142681D01*
X51005581Y-53919745D01*
X50871519Y-53719108D01*
X50700892Y-53548481D01*
X50500255Y-53414419D01*
X50277319Y-53322076D01*
X50040652Y-53275000D01*
X49799348Y-53275000D01*
X49562681Y-53322076D01*
X49339745Y-53414419D01*
X49139108Y-53548481D01*
X48968481Y-53719108D01*
X48834419Y-53919745D01*
X48742076Y-54142681D01*
X48695000Y-54379348D01*
X45660098Y-54379348D01*
X47029447Y-53010000D01*
X50511101Y-53010000D01*
X50619081Y-52999365D01*
X50757629Y-52957337D01*
X50885316Y-52889087D01*
X50997234Y-52797238D01*
X51089083Y-52685320D01*
X51157333Y-52557633D01*
X51199361Y-52419085D01*
X51213552Y-52275000D01*
X51199361Y-52130915D01*
X51157333Y-51992367D01*
X51089083Y-51864680D01*
X51016848Y-51776662D01*
X51022238Y-51772238D01*
X51114087Y-51660320D01*
X51182337Y-51532633D01*
X51224365Y-51394085D01*
X51238556Y-51250000D01*
X51224365Y-51105915D01*
X51182337Y-50967367D01*
X51114087Y-50839680D01*
X51022238Y-50727762D01*
X50910320Y-50635913D01*
X50782633Y-50567663D01*
X50644085Y-50525635D01*
X50536105Y-50515000D01*
X38304447Y-50515000D01*
X37985000Y-50195554D01*
X37985000Y-47963895D01*
X37974365Y-47855915D01*
X37932337Y-47717367D01*
X37864087Y-47589680D01*
X37772237Y-47477762D01*
X37660319Y-47385913D01*
X37532632Y-47317663D01*
X37394084Y-47275635D01*
X37250000Y-47261444D01*
X37105915Y-47275635D01*
X36967367Y-47317663D01*
X36839680Y-47385913D01*
X36727762Y-47477763D01*
X36635913Y-47589681D01*
X36567663Y-47717368D01*
X36525635Y-47855916D01*
X36515000Y-47963896D01*
X36515001Y-50463885D01*
X36511444Y-50500000D01*
X36525635Y-50644085D01*
X36557519Y-50749189D01*
X36567664Y-50782633D01*
X36635914Y-50910320D01*
X36727763Y-51022238D01*
X36755808Y-51045254D01*
X37225553Y-51515000D01*
X32687686Y-51515000D01*
X32724365Y-51394085D01*
X32738556Y-51250000D01*
X32724365Y-51105915D01*
X32682337Y-50967367D01*
X32614087Y-50839680D01*
X32522238Y-50727762D01*
X32410320Y-50635913D01*
X32282633Y-50567663D01*
X32144085Y-50525635D01*
X32036105Y-50515000D01*
X31687686Y-50515000D01*
X31724365Y-50394085D01*
X31738556Y-50250000D01*
X31724365Y-50105915D01*
X31682337Y-49967367D01*
X31614087Y-49839680D01*
X31522238Y-49727762D01*
X31410320Y-49635913D01*
X31282633Y-49567663D01*
X31144085Y-49525635D01*
X31036105Y-49515000D01*
X28786105Y-49515000D01*
X28750000Y-49511444D01*
X28605915Y-49525635D01*
X28467366Y-49567663D01*
X28360097Y-49625000D01*
X28339680Y-49635913D01*
X28227762Y-49727762D01*
X28204746Y-49755807D01*
X26005808Y-51954746D01*
X25977763Y-51977762D01*
X25885914Y-52089680D01*
X25836280Y-52182539D01*
X25817664Y-52217367D01*
X25775635Y-52355915D01*
X25761444Y-52500000D01*
X25593457Y-52500000D01*
X25689995Y-52147121D01*
X26041954Y-51409221D01*
X26519025Y-50745307D01*
X27116295Y-50166513D01*
X27245907Y-50065484D01*
X27245911Y-50065480D01*
X27260922Y-50053818D01*
X31537477Y-46000000D01*
X36761440Y-46000000D01*
X36775631Y-46144085D01*
X36817660Y-46282633D01*
X36885910Y-46410319D01*
X36954743Y-46494193D01*
X39454742Y-48994193D01*
X39477758Y-49022238D01*
X39589676Y-49114087D01*
X39717363Y-49182337D01*
X39855911Y-49224365D01*
X39999996Y-49238556D01*
X40036101Y-49235000D01*
X56786105Y-49235000D01*
X56894085Y-49224365D01*
X57032633Y-49182337D01*
X57160320Y-49114087D01*
X57272238Y-49022238D01*
X57364087Y-48910320D01*
X57432337Y-48782633D01*
X57474365Y-48644085D01*
X57488556Y-48500000D01*
X57474365Y-48355915D01*
X57432337Y-48217367D01*
X57364087Y-48089680D01*
X57272238Y-47977762D01*
X57160320Y-47885913D01*
X57032633Y-47817663D01*
X56894085Y-47775635D01*
X56786105Y-47765000D01*
X40304443Y-47765000D01*
X39539443Y-47000000D01*
X59261444Y-47000000D01*
X59275635Y-47144085D01*
X59317664Y-47282633D01*
X59385914Y-47410319D01*
X59477763Y-47522237D01*
X59589681Y-47614086D01*
X59717367Y-47682336D01*
X59855915Y-47724365D01*
X60000000Y-47738556D01*
X60144085Y-47724365D01*
X60282633Y-47682336D01*
X60410319Y-47614086D01*
X60494193Y-47545253D01*
X61539446Y-46500000D01*
X73305177Y-46500000D01*
X73313383Y-46583314D01*
X73337685Y-46663427D01*
X73377149Y-46737260D01*
X73430259Y-46801974D01*
X74152078Y-47520885D01*
X74302338Y-47520885D01*
X75323223Y-46500000D01*
X75676777Y-46500000D01*
X76697662Y-47520885D01*
X76847922Y-47520885D01*
X77569741Y-46801974D01*
X77622851Y-46737260D01*
X77662315Y-46663427D01*
X77686617Y-46583314D01*
X77694823Y-46500000D01*
X77686617Y-46416686D01*
X77662315Y-46336573D01*
X77622851Y-46262740D01*
X77569741Y-46198026D01*
X76847922Y-45479115D01*
X76697662Y-45479115D01*
X75676777Y-46500000D01*
X75323223Y-46500000D01*
X74302338Y-45479115D01*
X74152078Y-45479115D01*
X73430259Y-46198026D01*
X73377149Y-46262740D01*
X73337685Y-46336573D01*
X73313383Y-46416686D01*
X73305177Y-46500000D01*
X61539446Y-46500000D01*
X62887368Y-45152078D01*
X74479115Y-45152078D01*
X74479115Y-45302338D01*
X75500000Y-46323223D01*
X76520885Y-45302338D01*
X76520885Y-45152078D01*
X75801974Y-44430259D01*
X75737260Y-44377149D01*
X75663427Y-44337685D01*
X75583314Y-44313383D01*
X75500000Y-44305177D01*
X75416686Y-44313383D01*
X75336573Y-44337685D01*
X75262740Y-44377149D01*
X75198026Y-44430259D01*
X74479115Y-45152078D01*
X62887368Y-45152078D01*
X64304447Y-43735000D01*
X64929312Y-43735000D01*
X65557907Y-44363595D01*
X65652650Y-44441348D01*
X65760741Y-44499124D01*
X65878027Y-44534703D01*
X66000000Y-44546716D01*
X66121973Y-44534703D01*
X66239259Y-44499124D01*
X66347350Y-44441348D01*
X66442093Y-44363595D01*
X67363595Y-43442093D01*
X67441348Y-43347350D01*
X67499124Y-43239259D01*
X67534703Y-43121973D01*
X67546716Y-43000000D01*
X67534703Y-42878027D01*
X67499124Y-42760741D01*
X67441348Y-42652650D01*
X67363595Y-42557907D01*
X67188162Y-42382474D01*
X67354623Y-42460053D01*
X67465231Y-42493605D01*
X67671051Y-42422717D01*
X67671051Y-41505728D01*
X67781910Y-41394869D01*
X67715990Y-41328949D01*
X67921051Y-41328949D01*
X67921051Y-42422717D01*
X68126871Y-42493605D01*
X68372114Y-42404285D01*
X68595219Y-42268837D01*
X68787613Y-42092466D01*
X68941901Y-41881949D01*
X69052155Y-41645377D01*
X69085707Y-41534769D01*
X69014819Y-41328949D01*
X67921051Y-41328949D01*
X67715990Y-41328949D01*
X67605131Y-41218090D01*
X67494272Y-41328949D01*
X66577283Y-41328949D01*
X66506395Y-41534769D01*
X66595715Y-41780012D01*
X66611190Y-41805502D01*
X66442093Y-41636405D01*
X66347350Y-41558652D01*
X66239259Y-41500876D01*
X66121973Y-41465297D01*
X66000000Y-41453284D01*
X65878027Y-41465297D01*
X65760741Y-41500876D01*
X65652650Y-41558652D01*
X65557907Y-41636405D01*
X64929312Y-42265000D01*
X64036094Y-42265000D01*
X63999999Y-42261445D01*
X63963904Y-42265000D01*
X63963895Y-42265000D01*
X63855915Y-42275635D01*
X63717367Y-42317663D01*
X63589680Y-42385913D01*
X63477762Y-42477762D01*
X63454746Y-42505807D01*
X59454747Y-46505807D01*
X59385914Y-46589681D01*
X59317664Y-46717367D01*
X59275635Y-46855915D01*
X59261444Y-47000000D01*
X39539443Y-47000000D01*
X38039443Y-45500000D01*
X47511444Y-45500000D01*
X47525635Y-45644085D01*
X47567663Y-45782633D01*
X47635913Y-45910320D01*
X47727762Y-46022238D01*
X47839680Y-46114087D01*
X47967367Y-46182337D01*
X48105915Y-46224365D01*
X48213895Y-46235000D01*
X50536105Y-46235000D01*
X50644085Y-46224365D01*
X50782633Y-46182337D01*
X50910320Y-46114087D01*
X51022238Y-46022238D01*
X51114087Y-45910320D01*
X51182337Y-45782633D01*
X51224365Y-45644085D01*
X51238556Y-45500000D01*
X51224365Y-45355915D01*
X51182337Y-45217367D01*
X51114087Y-45089680D01*
X51022238Y-44977762D01*
X50910320Y-44885913D01*
X50782633Y-44817663D01*
X50644085Y-44775635D01*
X50536105Y-44765000D01*
X48213895Y-44765000D01*
X48105915Y-44775635D01*
X47967367Y-44817663D01*
X47839680Y-44885913D01*
X47727762Y-44977762D01*
X47635913Y-45089680D01*
X47567663Y-45217367D01*
X47525635Y-45355915D01*
X47511444Y-45500000D01*
X38039443Y-45500000D01*
X37994189Y-45454747D01*
X37910315Y-45385914D01*
X37782629Y-45317664D01*
X37644081Y-45275635D01*
X37499996Y-45261444D01*
X37355911Y-45275635D01*
X37217363Y-45317664D01*
X37089677Y-45385914D01*
X36977759Y-45477763D01*
X36885910Y-45589681D01*
X36817660Y-45717367D01*
X36775631Y-45855915D01*
X36761440Y-46000000D01*
X31537477Y-46000000D01*
X33647369Y-43999998D01*
X52511442Y-43999998D01*
X52525633Y-44144083D01*
X52567662Y-44282631D01*
X52635912Y-44410317D01*
X52727761Y-44522235D01*
X52839679Y-44614084D01*
X52967365Y-44682334D01*
X53105913Y-44724363D01*
X53249998Y-44738554D01*
X53394083Y-44724363D01*
X53532631Y-44682334D01*
X53660317Y-44614084D01*
X53744191Y-44545251D01*
X57295251Y-40994192D01*
X57295255Y-40994187D01*
X58146545Y-40142898D01*
X66992697Y-40142898D01*
X66804489Y-40315432D01*
X66650201Y-40525949D01*
X66539947Y-40762521D01*
X66506395Y-40873129D01*
X66577283Y-41078949D01*
X67671051Y-41078949D01*
X67671051Y-40142898D01*
X67921051Y-40142898D01*
X67921051Y-40902170D01*
X67810192Y-41013029D01*
X67986971Y-41189808D01*
X68097830Y-41078949D01*
X69014819Y-41078949D01*
X69085707Y-40873129D01*
X68996387Y-40627886D01*
X68909968Y-40485540D01*
X68988163Y-40537788D01*
X69220198Y-40633900D01*
X69466525Y-40682898D01*
X69717679Y-40682898D01*
X69809409Y-40664652D01*
X70831228Y-41686471D01*
X70645678Y-41872021D01*
X70467841Y-42138172D01*
X70345346Y-42433903D01*
X70282898Y-42747849D01*
X70282898Y-43067947D01*
X70345346Y-43381893D01*
X70467841Y-43677624D01*
X70645678Y-43943775D01*
X70872021Y-44170118D01*
X71138172Y-44347955D01*
X71433903Y-44470450D01*
X71747849Y-44532898D01*
X72067947Y-44532898D01*
X72381893Y-44470450D01*
X72677624Y-44347955D01*
X72943775Y-44170118D01*
X73170118Y-43943775D01*
X73347955Y-43677624D01*
X73470450Y-43381893D01*
X73532898Y-43067947D01*
X73532898Y-42747849D01*
X73470450Y-42433903D01*
X73347955Y-42138172D01*
X73170118Y-41872021D01*
X72943775Y-41645678D01*
X72677624Y-41467841D01*
X72583770Y-41428966D01*
X72521985Y-41313374D01*
X72430136Y-41201456D01*
X72402091Y-41178440D01*
X70848856Y-39625205D01*
X70867102Y-39533475D01*
X70867102Y-39282321D01*
X70818104Y-39035994D01*
X70721992Y-38803959D01*
X70582459Y-38595133D01*
X70404867Y-38417541D01*
X70196041Y-38278008D01*
X69964006Y-38181896D01*
X69717679Y-38132898D01*
X69466525Y-38132898D01*
X69220198Y-38181896D01*
X68988163Y-38278008D01*
X68779337Y-38417541D01*
X68601745Y-38595133D01*
X68549784Y-38672898D01*
X57878203Y-38672898D01*
X57842098Y-38669342D01*
X57698013Y-38683533D01*
X57559464Y-38725561D01*
X57431778Y-38793811D01*
X57319860Y-38885660D01*
X57296844Y-38913705D01*
X56255809Y-39954741D01*
X56255804Y-39954745D01*
X52704745Y-43505805D01*
X52635912Y-43589679D01*
X52567662Y-43717365D01*
X52525633Y-43855913D01*
X52511442Y-43999998D01*
X33647369Y-43999998D01*
X47715292Y-30664781D01*
X51596468Y-30664781D01*
X51596468Y-31335219D01*
X51727264Y-31992774D01*
X51983829Y-32612177D01*
X52356304Y-33169625D01*
X52830375Y-33643696D01*
X53387823Y-34016171D01*
X54007226Y-34272736D01*
X54664781Y-34403532D01*
X55335219Y-34403532D01*
X55992774Y-34272736D01*
X56612177Y-34016171D01*
X57169625Y-33643696D01*
X57643696Y-33169625D01*
X58016171Y-32612177D01*
X58272736Y-31992774D01*
X58403532Y-31335219D01*
X58403532Y-30664781D01*
X58272736Y-30007226D01*
X58016171Y-29387823D01*
X57643696Y-28830375D01*
X57169625Y-28356304D01*
X56612177Y-27983829D01*
X55992774Y-27727264D01*
X55335219Y-27596468D01*
X54664781Y-27596468D01*
X54007226Y-27727264D01*
X53387823Y-27983829D01*
X52830375Y-28356304D01*
X52356304Y-28830375D01*
X51983829Y-29387823D01*
X51727264Y-30007226D01*
X51596468Y-30664781D01*
X47715292Y-30664781D01*
X51289440Y-27276787D01*
X51295025Y-27270341D01*
X51888053Y-26658253D01*
X52559035Y-26172432D01*
X53304179Y-25810512D01*
X54100850Y-25583482D01*
X54924847Y-25498241D01*
X55751120Y-25557380D01*
%TA.AperFunction,Conductor*%
D19*
G36*
X55751120Y-25557380D02*
G01*
X56554573Y-25759101D01*
X57310792Y-26097278D01*
X57996800Y-26561632D01*
X58602067Y-27148051D01*
X58670312Y-27229384D01*
X58671890Y-27232155D01*
X58710559Y-27276785D01*
X82739076Y-50053817D01*
X82743211Y-50057030D01*
X83366887Y-50617996D01*
X83868304Y-51263717D01*
X84247453Y-51988034D01*
X84492340Y-52768035D01*
X84597014Y-53593131D01*
X84600001Y-53753777D01*
X84600000Y-119982191D01*
X84525736Y-120814307D01*
X84310007Y-121602878D01*
X83958044Y-122340783D01*
X83480972Y-123004698D01*
X82893876Y-123573634D01*
X82215302Y-124029616D01*
X81466706Y-124358228D01*
X80668674Y-124549819D01*
X79985330Y-124600000D01*
X30017809Y-124600000D01*
X29185693Y-124525736D01*
X28397122Y-124310007D01*
X27659217Y-123958044D01*
X26995302Y-123480972D01*
X26426366Y-122893876D01*
X25970384Y-122215302D01*
X25641772Y-121466706D01*
X25450181Y-120668674D01*
X25400000Y-119985330D01*
X25400000Y-53767822D01*
X25474265Y-52935695D01*
X25593457Y-52500000D01*
X25761444Y-52500000D01*
X25765001Y-52536115D01*
X25765000Y-72786104D01*
X25765001Y-72786114D01*
X25765000Y-97786104D01*
X25765001Y-97786114D01*
X25765000Y-121213895D01*
X25761444Y-121250000D01*
X25774978Y-121387413D01*
X25775635Y-121394084D01*
X25817663Y-121532632D01*
X25885913Y-121660319D01*
X25977762Y-121772237D01*
X26005808Y-121795254D01*
X27505806Y-123295253D01*
X27505811Y-123295257D01*
X28204746Y-123994193D01*
X28227762Y-124022238D01*
X28339680Y-124114087D01*
X28467367Y-124182337D01*
X28556345Y-124209328D01*
X28605914Y-124224365D01*
X28620132Y-124225765D01*
X28713895Y-124235000D01*
X28713902Y-124235000D01*
X28749999Y-124238555D01*
X28786096Y-124235000D01*
X53286105Y-124235000D01*
X53394085Y-124224365D01*
X53532633Y-124182337D01*
X53660320Y-124114087D01*
X53772238Y-124022238D01*
X53864087Y-123910320D01*
X53932337Y-123782633D01*
X53974365Y-123644085D01*
X53988556Y-123500000D01*
X55761444Y-123500000D01*
X55775635Y-123644085D01*
X55817663Y-123782633D01*
X55885913Y-123910320D01*
X55977762Y-124022238D01*
X56089680Y-124114087D01*
X56217367Y-124182337D01*
X56355915Y-124224365D01*
X56463895Y-124235000D01*
X80963895Y-124235000D01*
X81000000Y-124238556D01*
X81036105Y-124235000D01*
X81144085Y-124224365D01*
X81282633Y-124182337D01*
X81410320Y-124114087D01*
X81522238Y-124022238D01*
X81545258Y-123994188D01*
X82545253Y-122994194D01*
X82545257Y-122994189D01*
X83994197Y-121545250D01*
X84022237Y-121522238D01*
X84045250Y-121494197D01*
X84045253Y-121494194D01*
X84114086Y-121410321D01*
X84114087Y-121410320D01*
X84182337Y-121282633D01*
X84224365Y-121144085D01*
X84235000Y-121036105D01*
X84235000Y-121036096D01*
X84238555Y-121000001D01*
X84235000Y-120963906D01*
X84235000Y-52932541D01*
X84238555Y-52896446D01*
X84235000Y-52860351D01*
X84235000Y-52860342D01*
X84224365Y-52752362D01*
X84182337Y-52613814D01*
X84114087Y-52486127D01*
X84022238Y-52374209D01*
X83994193Y-52351193D01*
X81398812Y-49755812D01*
X81375791Y-49727762D01*
X81263873Y-49635913D01*
X81136186Y-49567663D01*
X80997638Y-49525635D01*
X80889658Y-49515000D01*
X80853553Y-49511444D01*
X80817448Y-49515000D01*
X78963895Y-49515000D01*
X78855915Y-49525635D01*
X78717367Y-49567663D01*
X78589680Y-49635913D01*
X78477762Y-49727762D01*
X78385913Y-49839680D01*
X78317663Y-49967367D01*
X78275635Y-50105915D01*
X78261444Y-50250000D01*
X78275635Y-50394085D01*
X78312314Y-50515000D01*
X77963895Y-50515000D01*
X77855915Y-50525635D01*
X77717367Y-50567663D01*
X77589680Y-50635913D01*
X77477762Y-50727762D01*
X77385913Y-50839680D01*
X77317663Y-50967367D01*
X77275635Y-51105915D01*
X77261444Y-51250000D01*
X77275635Y-51394085D01*
X77312314Y-51515000D01*
X72437686Y-51515000D01*
X72474365Y-51394085D01*
X72488556Y-51250000D01*
X72485000Y-51213895D01*
X72485000Y-47963895D01*
X72474365Y-47855915D01*
X72432337Y-47717367D01*
X72421805Y-47697662D01*
X74479115Y-47697662D01*
X74479115Y-47847922D01*
X75198026Y-48569741D01*
X75262740Y-48622851D01*
X75336573Y-48662315D01*
X75416686Y-48686617D01*
X75500000Y-48694823D01*
X75583314Y-48686617D01*
X75663427Y-48662315D01*
X75737260Y-48622851D01*
X75801974Y-48569741D01*
X76520885Y-47847922D01*
X76520885Y-47697662D01*
X75500000Y-46676777D01*
X74479115Y-47697662D01*
X72421805Y-47697662D01*
X72364087Y-47589680D01*
X72272237Y-47477762D01*
X72160319Y-47385913D01*
X72032632Y-47317663D01*
X71894084Y-47275635D01*
X71750000Y-47261444D01*
X71605915Y-47275635D01*
X71467367Y-47317663D01*
X71339680Y-47385913D01*
X71227762Y-47477763D01*
X71135913Y-47589681D01*
X71067663Y-47717368D01*
X71025635Y-47855916D01*
X71015000Y-47963896D01*
X71015001Y-50515000D01*
X65536096Y-50515000D01*
X65499999Y-50511445D01*
X65463902Y-50515000D01*
X65463895Y-50515000D01*
X65370132Y-50524235D01*
X65355914Y-50525635D01*
X65332842Y-50532634D01*
X65217367Y-50567663D01*
X65089680Y-50635913D01*
X64977762Y-50727762D01*
X64954747Y-50755806D01*
X64445554Y-51265000D01*
X61213895Y-51265000D01*
X61105915Y-51275635D01*
X60967367Y-51317663D01*
X60839680Y-51385913D01*
X60727762Y-51477762D01*
X60635913Y-51589680D01*
X60567663Y-51717367D01*
X60525635Y-51855915D01*
X60511444Y-52000000D01*
X60525635Y-52144085D01*
X60567663Y-52282633D01*
X60635913Y-52410320D01*
X60727762Y-52522238D01*
X60839680Y-52614087D01*
X60865490Y-52627883D01*
X60817662Y-52717363D01*
X60775633Y-52855911D01*
X60761442Y-52999996D01*
X60775633Y-53144081D01*
X60799688Y-53223377D01*
X60311250Y-53225000D01*
X60205000Y-53331250D01*
X60205000Y-54375000D01*
X61248750Y-54375000D01*
X61355000Y-54268750D01*
X61356240Y-53895684D01*
X62704748Y-55244193D01*
X62727764Y-55272238D01*
X62839682Y-55364087D01*
X62967369Y-55432337D01*
X63105917Y-55474365D01*
X63213897Y-55485000D01*
X63213906Y-55485000D01*
X63250001Y-55488555D01*
X63286096Y-55485000D01*
X78765001Y-55485000D01*
X78765000Y-77463895D01*
X78765000Y-77463896D01*
X78765001Y-100463886D01*
X78765000Y-100463896D01*
X78765001Y-102536105D01*
X78775636Y-102644085D01*
X78817664Y-102782633D01*
X78885914Y-102910320D01*
X78977763Y-103022238D01*
X79089681Y-103114087D01*
X79217368Y-103182337D01*
X79355916Y-103224365D01*
X79500000Y-103238556D01*
X79644085Y-103224365D01*
X79765001Y-103187686D01*
X79765001Y-119195552D01*
X79195528Y-119765026D01*
X77963895Y-119765026D01*
X77855915Y-119775661D01*
X77717367Y-119817689D01*
X77589680Y-119885939D01*
X77477762Y-119977788D01*
X77385913Y-120089706D01*
X77317663Y-120217393D01*
X77275635Y-120355941D01*
X77261444Y-120500026D01*
X77275635Y-120644111D01*
X77312306Y-120765000D01*
X71963895Y-120765000D01*
X71855915Y-120775635D01*
X71717367Y-120817663D01*
X71589680Y-120885913D01*
X71477762Y-120977762D01*
X71385913Y-121089680D01*
X71317663Y-121217367D01*
X71275635Y-121355915D01*
X71261444Y-121500000D01*
X71275635Y-121644085D01*
X71312314Y-121765000D01*
X65463895Y-121765000D01*
X65355915Y-121775635D01*
X65217367Y-121817663D01*
X65089680Y-121885913D01*
X64977762Y-121977762D01*
X64885913Y-122089680D01*
X64817663Y-122217367D01*
X64775635Y-122355915D01*
X64761444Y-122500000D01*
X64775635Y-122644085D01*
X64812314Y-122765000D01*
X56463895Y-122765000D01*
X56355915Y-122775635D01*
X56217367Y-122817663D01*
X56089680Y-122885913D01*
X55977762Y-122977762D01*
X55885913Y-123089680D01*
X55817663Y-123217367D01*
X55775635Y-123355915D01*
X55761444Y-123500000D01*
X53988556Y-123500000D01*
X53974365Y-123355915D01*
X53932337Y-123217367D01*
X53864087Y-123089680D01*
X53772238Y-122977762D01*
X53660320Y-122885913D01*
X53532633Y-122817663D01*
X53394085Y-122775635D01*
X53286105Y-122765000D01*
X47437686Y-122765000D01*
X47474365Y-122644085D01*
X47488556Y-122500000D01*
X47474365Y-122355915D01*
X47432337Y-122217367D01*
X47364087Y-122089680D01*
X47272238Y-121977762D01*
X47160320Y-121885913D01*
X47032633Y-121817663D01*
X46894085Y-121775635D01*
X46786105Y-121765000D01*
X38687686Y-121765000D01*
X38724365Y-121644085D01*
X38738556Y-121500000D01*
X38724365Y-121355915D01*
X38682337Y-121217367D01*
X38614087Y-121089680D01*
X38522238Y-120977762D01*
X38410320Y-120885913D01*
X38282633Y-120817663D01*
X38144085Y-120775635D01*
X38036105Y-120765000D01*
X32687686Y-120765000D01*
X32724365Y-120644085D01*
X32738556Y-120500000D01*
X32724365Y-120355915D01*
X32682337Y-120217367D01*
X32614087Y-120089680D01*
X32522238Y-119977762D01*
X32410320Y-119885913D01*
X32282633Y-119817663D01*
X32144085Y-119775635D01*
X32036105Y-119765000D01*
X30554447Y-119765000D01*
X30235000Y-119445554D01*
X30235000Y-117070000D01*
X46975000Y-117070000D01*
X46975000Y-120370000D01*
X63025000Y-120370000D01*
X63025000Y-117070000D01*
X46975000Y-117070000D01*
X30235000Y-117070000D01*
X30235000Y-113470000D01*
X43467857Y-113470000D01*
X43467857Y-116770000D01*
X66732143Y-116770000D01*
X66732143Y-113470000D01*
X43467857Y-113470000D01*
X30235000Y-113470000D01*
X30235000Y-103187686D01*
X30355915Y-103224365D01*
X30500000Y-103238556D01*
X30644084Y-103224365D01*
X30782632Y-103182337D01*
X30910319Y-103114087D01*
X31022237Y-103022238D01*
X31114087Y-102910320D01*
X31182337Y-102782633D01*
X31224365Y-102644085D01*
X31235000Y-102536105D01*
X31235000Y-54985000D01*
X44713895Y-54985000D01*
X44750000Y-54988556D01*
X44786105Y-54985000D01*
X44894085Y-54974365D01*
X45032633Y-54932337D01*
X45160320Y-54864087D01*
X45272238Y-54772238D01*
X45295258Y-54744188D01*
X45660098Y-54379348D01*
X48695000Y-54379348D01*
X48695000Y-54620652D01*
X48742076Y-54857319D01*
X48834419Y-55080255D01*
X48968481Y-55280892D01*
X49139108Y-55451519D01*
X49339745Y-55585581D01*
X49562681Y-55677924D01*
X49799348Y-55725000D01*
X50040652Y-55725000D01*
X50277319Y-55677924D01*
X50500255Y-55585581D01*
X50700892Y-55451519D01*
X50871519Y-55280892D01*
X51005581Y-55080255D01*
X51097924Y-54857319D01*
X51145000Y-54620652D01*
X51145000Y-54379348D01*
X51235000Y-54379348D01*
X51235000Y-54620652D01*
X51282076Y-54857319D01*
X51374419Y-55080255D01*
X51508481Y-55280892D01*
X51679108Y-55451519D01*
X51879745Y-55585581D01*
X52102681Y-55677924D01*
X52339348Y-55725000D01*
X52580652Y-55725000D01*
X52817319Y-55677924D01*
X53040255Y-55585581D01*
X53240892Y-55451519D01*
X53411519Y-55280892D01*
X53545581Y-55080255D01*
X53637924Y-54857319D01*
X53685000Y-54620652D01*
X53685000Y-54379348D01*
X53775000Y-54379348D01*
X53775000Y-54620652D01*
X53822076Y-54857319D01*
X53914419Y-55080255D01*
X54048481Y-55280892D01*
X54219108Y-55451519D01*
X54419745Y-55585581D01*
X54642681Y-55677924D01*
X54879348Y-55725000D01*
X55120652Y-55725000D01*
X55357319Y-55677924D01*
X55580255Y-55585581D01*
X55780892Y-55451519D01*
X55951519Y-55280892D01*
X56085581Y-55080255D01*
X56177924Y-54857319D01*
X56225000Y-54620652D01*
X56225000Y-54379348D01*
X56315000Y-54379348D01*
X56315000Y-54620652D01*
X56362076Y-54857319D01*
X56454419Y-55080255D01*
X56588481Y-55280892D01*
X56759108Y-55451519D01*
X56959745Y-55585581D01*
X57182681Y-55677924D01*
X57419348Y-55725000D01*
X57660652Y-55725000D01*
X57897319Y-55677924D01*
X58120255Y-55585581D01*
X58320892Y-55451519D01*
X58422411Y-55350000D01*
X58802944Y-55350000D01*
X58811150Y-55433314D01*
X58835452Y-55513427D01*
X58874916Y-55587260D01*
X58928026Y-55651974D01*
X58992740Y-55705084D01*
X59066573Y-55744548D01*
X59146686Y-55768850D01*
X59230000Y-55777056D01*
X59848750Y-55775000D01*
X59955000Y-55668750D01*
X59955000Y-54625000D01*
X60205000Y-54625000D01*
X60205000Y-55668750D01*
X60311250Y-55775000D01*
X60930000Y-55777056D01*
X61013314Y-55768850D01*
X61093427Y-55744548D01*
X61167260Y-55705084D01*
X61231974Y-55651974D01*
X61285084Y-55587260D01*
X61324548Y-55513427D01*
X61348850Y-55433314D01*
X61357056Y-55350000D01*
X61355000Y-54731250D01*
X61248750Y-54625000D01*
X60205000Y-54625000D01*
X59955000Y-54625000D01*
X58911250Y-54625000D01*
X58805000Y-54731250D01*
X58802944Y-55350000D01*
X58422411Y-55350000D01*
X58491519Y-55280892D01*
X58625581Y-55080255D01*
X58717924Y-54857319D01*
X58765000Y-54620652D01*
X58765000Y-54379348D01*
X58717924Y-54142681D01*
X58625581Y-53919745D01*
X58491519Y-53719108D01*
X58422411Y-53650000D01*
X58802944Y-53650000D01*
X58805000Y-54268750D01*
X58911250Y-54375000D01*
X59955000Y-54375000D01*
X59955000Y-53331250D01*
X59848750Y-53225000D01*
X59230000Y-53222944D01*
X59146686Y-53231150D01*
X59066573Y-53255452D01*
X58992740Y-53294916D01*
X58928026Y-53348026D01*
X58874916Y-53412740D01*
X58835452Y-53486573D01*
X58811150Y-53566686D01*
X58802944Y-53650000D01*
X58422411Y-53650000D01*
X58320892Y-53548481D01*
X58120255Y-53414419D01*
X57897319Y-53322076D01*
X57660652Y-53275000D01*
X57419348Y-53275000D01*
X57182681Y-53322076D01*
X56959745Y-53414419D01*
X56759108Y-53548481D01*
X56588481Y-53719108D01*
X56454419Y-53919745D01*
X56362076Y-54142681D01*
X56315000Y-54379348D01*
X56225000Y-54379348D01*
X56177924Y-54142681D01*
X56085581Y-53919745D01*
X55951519Y-53719108D01*
X55780892Y-53548481D01*
X55580255Y-53414419D01*
X55357319Y-53322076D01*
X55120652Y-53275000D01*
X54879348Y-53275000D01*
X54642681Y-53322076D01*
X54419745Y-53414419D01*
X54219108Y-53548481D01*
X54048481Y-53719108D01*
X53914419Y-53919745D01*
X53822076Y-54142681D01*
X53775000Y-54379348D01*
X53685000Y-54379348D01*
X53637924Y-54142681D01*
X53545581Y-53919745D01*
X53411519Y-53719108D01*
X53240892Y-53548481D01*
X53040255Y-53414419D01*
X52817319Y-53322076D01*
X52580652Y-53275000D01*
X52339348Y-53275000D01*
X52102681Y-53322076D01*
X51879745Y-53414419D01*
X51679108Y-53548481D01*
X51508481Y-53719108D01*
X51374419Y-53919745D01*
X51282076Y-54142681D01*
X51235000Y-54379348D01*
X51145000Y-54379348D01*
X51097924Y-54142681D01*
X51005581Y-53919745D01*
X50871519Y-53719108D01*
X50700892Y-53548481D01*
X50500255Y-53414419D01*
X50277319Y-53322076D01*
X50040652Y-53275000D01*
X49799348Y-53275000D01*
X49562681Y-53322076D01*
X49339745Y-53414419D01*
X49139108Y-53548481D01*
X48968481Y-53719108D01*
X48834419Y-53919745D01*
X48742076Y-54142681D01*
X48695000Y-54379348D01*
X45660098Y-54379348D01*
X47029447Y-53010000D01*
X50511101Y-53010000D01*
X50619081Y-52999365D01*
X50757629Y-52957337D01*
X50885316Y-52889087D01*
X50997234Y-52797238D01*
X51089083Y-52685320D01*
X51157333Y-52557633D01*
X51199361Y-52419085D01*
X51213552Y-52275000D01*
X51199361Y-52130915D01*
X51157333Y-51992367D01*
X51089083Y-51864680D01*
X51016848Y-51776662D01*
X51022238Y-51772238D01*
X51114087Y-51660320D01*
X51182337Y-51532633D01*
X51224365Y-51394085D01*
X51238556Y-51250000D01*
X51224365Y-51105915D01*
X51182337Y-50967367D01*
X51114087Y-50839680D01*
X51022238Y-50727762D01*
X50910320Y-50635913D01*
X50782633Y-50567663D01*
X50644085Y-50525635D01*
X50536105Y-50515000D01*
X38304447Y-50515000D01*
X37985000Y-50195554D01*
X37985000Y-47963895D01*
X37974365Y-47855915D01*
X37932337Y-47717367D01*
X37864087Y-47589680D01*
X37772237Y-47477762D01*
X37660319Y-47385913D01*
X37532632Y-47317663D01*
X37394084Y-47275635D01*
X37250000Y-47261444D01*
X37105915Y-47275635D01*
X36967367Y-47317663D01*
X36839680Y-47385913D01*
X36727762Y-47477763D01*
X36635913Y-47589681D01*
X36567663Y-47717368D01*
X36525635Y-47855916D01*
X36515000Y-47963896D01*
X36515001Y-50463885D01*
X36511444Y-50500000D01*
X36525635Y-50644085D01*
X36557519Y-50749189D01*
X36567664Y-50782633D01*
X36635914Y-50910320D01*
X36727763Y-51022238D01*
X36755808Y-51045254D01*
X37225553Y-51515000D01*
X32687686Y-51515000D01*
X32724365Y-51394085D01*
X32738556Y-51250000D01*
X32724365Y-51105915D01*
X32682337Y-50967367D01*
X32614087Y-50839680D01*
X32522238Y-50727762D01*
X32410320Y-50635913D01*
X32282633Y-50567663D01*
X32144085Y-50525635D01*
X32036105Y-50515000D01*
X31687686Y-50515000D01*
X31724365Y-50394085D01*
X31738556Y-50250000D01*
X31724365Y-50105915D01*
X31682337Y-49967367D01*
X31614087Y-49839680D01*
X31522238Y-49727762D01*
X31410320Y-49635913D01*
X31282633Y-49567663D01*
X31144085Y-49525635D01*
X31036105Y-49515000D01*
X28786105Y-49515000D01*
X28750000Y-49511444D01*
X28605915Y-49525635D01*
X28467366Y-49567663D01*
X28360097Y-49625000D01*
X28339680Y-49635913D01*
X28227762Y-49727762D01*
X28204746Y-49755807D01*
X26005808Y-51954746D01*
X25977763Y-51977762D01*
X25885914Y-52089680D01*
X25836280Y-52182539D01*
X25817664Y-52217367D01*
X25775635Y-52355915D01*
X25761444Y-52500000D01*
X25593457Y-52500000D01*
X25689995Y-52147121D01*
X26041954Y-51409221D01*
X26519025Y-50745307D01*
X27116295Y-50166513D01*
X27245907Y-50065484D01*
X27245911Y-50065480D01*
X27260922Y-50053818D01*
X31537477Y-46000000D01*
X36761440Y-46000000D01*
X36775631Y-46144085D01*
X36817660Y-46282633D01*
X36885910Y-46410319D01*
X36954743Y-46494193D01*
X39454742Y-48994193D01*
X39477758Y-49022238D01*
X39589676Y-49114087D01*
X39717363Y-49182337D01*
X39855911Y-49224365D01*
X39999996Y-49238556D01*
X40036101Y-49235000D01*
X56786105Y-49235000D01*
X56894085Y-49224365D01*
X57032633Y-49182337D01*
X57160320Y-49114087D01*
X57272238Y-49022238D01*
X57364087Y-48910320D01*
X57432337Y-48782633D01*
X57474365Y-48644085D01*
X57488556Y-48500000D01*
X57474365Y-48355915D01*
X57432337Y-48217367D01*
X57364087Y-48089680D01*
X57272238Y-47977762D01*
X57160320Y-47885913D01*
X57032633Y-47817663D01*
X56894085Y-47775635D01*
X56786105Y-47765000D01*
X40304443Y-47765000D01*
X39539443Y-47000000D01*
X59261444Y-47000000D01*
X59275635Y-47144085D01*
X59317664Y-47282633D01*
X59385914Y-47410319D01*
X59477763Y-47522237D01*
X59589681Y-47614086D01*
X59717367Y-47682336D01*
X59855915Y-47724365D01*
X60000000Y-47738556D01*
X60144085Y-47724365D01*
X60282633Y-47682336D01*
X60410319Y-47614086D01*
X60494193Y-47545253D01*
X61539446Y-46500000D01*
X73305177Y-46500000D01*
X73313383Y-46583314D01*
X73337685Y-46663427D01*
X73377149Y-46737260D01*
X73430259Y-46801974D01*
X74152078Y-47520885D01*
X74302338Y-47520885D01*
X75323223Y-46500000D01*
X75676777Y-46500000D01*
X76697662Y-47520885D01*
X76847922Y-47520885D01*
X77569741Y-46801974D01*
X77622851Y-46737260D01*
X77662315Y-46663427D01*
X77686617Y-46583314D01*
X77694823Y-46500000D01*
X77686617Y-46416686D01*
X77662315Y-46336573D01*
X77622851Y-46262740D01*
X77569741Y-46198026D01*
X76847922Y-45479115D01*
X76697662Y-45479115D01*
X75676777Y-46500000D01*
X75323223Y-46500000D01*
X74302338Y-45479115D01*
X74152078Y-45479115D01*
X73430259Y-46198026D01*
X73377149Y-46262740D01*
X73337685Y-46336573D01*
X73313383Y-46416686D01*
X73305177Y-46500000D01*
X61539446Y-46500000D01*
X62887368Y-45152078D01*
X74479115Y-45152078D01*
X74479115Y-45302338D01*
X75500000Y-46323223D01*
X76520885Y-45302338D01*
X76520885Y-45152078D01*
X75801974Y-44430259D01*
X75737260Y-44377149D01*
X75663427Y-44337685D01*
X75583314Y-44313383D01*
X75500000Y-44305177D01*
X75416686Y-44313383D01*
X75336573Y-44337685D01*
X75262740Y-44377149D01*
X75198026Y-44430259D01*
X74479115Y-45152078D01*
X62887368Y-45152078D01*
X64304447Y-43735000D01*
X64929312Y-43735000D01*
X65557907Y-44363595D01*
X65652650Y-44441348D01*
X65760741Y-44499124D01*
X65878027Y-44534703D01*
X66000000Y-44546716D01*
X66121973Y-44534703D01*
X66239259Y-44499124D01*
X66347350Y-44441348D01*
X66442093Y-44363595D01*
X67363595Y-43442093D01*
X67441348Y-43347350D01*
X67499124Y-43239259D01*
X67534703Y-43121973D01*
X67546716Y-43000000D01*
X67534703Y-42878027D01*
X67499124Y-42760741D01*
X67441348Y-42652650D01*
X67363595Y-42557907D01*
X67188162Y-42382474D01*
X67354623Y-42460053D01*
X67465231Y-42493605D01*
X67671051Y-42422717D01*
X67671051Y-41505728D01*
X67781910Y-41394869D01*
X67715990Y-41328949D01*
X67921051Y-41328949D01*
X67921051Y-42422717D01*
X68126871Y-42493605D01*
X68372114Y-42404285D01*
X68595219Y-42268837D01*
X68787613Y-42092466D01*
X68941901Y-41881949D01*
X69052155Y-41645377D01*
X69085707Y-41534769D01*
X69014819Y-41328949D01*
X67921051Y-41328949D01*
X67715990Y-41328949D01*
X67605131Y-41218090D01*
X67494272Y-41328949D01*
X66577283Y-41328949D01*
X66506395Y-41534769D01*
X66595715Y-41780012D01*
X66611190Y-41805502D01*
X66442093Y-41636405D01*
X66347350Y-41558652D01*
X66239259Y-41500876D01*
X66121973Y-41465297D01*
X66000000Y-41453284D01*
X65878027Y-41465297D01*
X65760741Y-41500876D01*
X65652650Y-41558652D01*
X65557907Y-41636405D01*
X64929312Y-42265000D01*
X64036094Y-42265000D01*
X63999999Y-42261445D01*
X63963904Y-42265000D01*
X63963895Y-42265000D01*
X63855915Y-42275635D01*
X63717367Y-42317663D01*
X63589680Y-42385913D01*
X63477762Y-42477762D01*
X63454746Y-42505807D01*
X59454747Y-46505807D01*
X59385914Y-46589681D01*
X59317664Y-46717367D01*
X59275635Y-46855915D01*
X59261444Y-47000000D01*
X39539443Y-47000000D01*
X38039443Y-45500000D01*
X47511444Y-45500000D01*
X47525635Y-45644085D01*
X47567663Y-45782633D01*
X47635913Y-45910320D01*
X47727762Y-46022238D01*
X47839680Y-46114087D01*
X47967367Y-46182337D01*
X48105915Y-46224365D01*
X48213895Y-46235000D01*
X50536105Y-46235000D01*
X50644085Y-46224365D01*
X50782633Y-46182337D01*
X50910320Y-46114087D01*
X51022238Y-46022238D01*
X51114087Y-45910320D01*
X51182337Y-45782633D01*
X51224365Y-45644085D01*
X51238556Y-45500000D01*
X51224365Y-45355915D01*
X51182337Y-45217367D01*
X51114087Y-45089680D01*
X51022238Y-44977762D01*
X50910320Y-44885913D01*
X50782633Y-44817663D01*
X50644085Y-44775635D01*
X50536105Y-44765000D01*
X48213895Y-44765000D01*
X48105915Y-44775635D01*
X47967367Y-44817663D01*
X47839680Y-44885913D01*
X47727762Y-44977762D01*
X47635913Y-45089680D01*
X47567663Y-45217367D01*
X47525635Y-45355915D01*
X47511444Y-45500000D01*
X38039443Y-45500000D01*
X37994189Y-45454747D01*
X37910315Y-45385914D01*
X37782629Y-45317664D01*
X37644081Y-45275635D01*
X37499996Y-45261444D01*
X37355911Y-45275635D01*
X37217363Y-45317664D01*
X37089677Y-45385914D01*
X36977759Y-45477763D01*
X36885910Y-45589681D01*
X36817660Y-45717367D01*
X36775631Y-45855915D01*
X36761440Y-46000000D01*
X31537477Y-46000000D01*
X33647369Y-43999998D01*
X52511442Y-43999998D01*
X52525633Y-44144083D01*
X52567662Y-44282631D01*
X52635912Y-44410317D01*
X52727761Y-44522235D01*
X52839679Y-44614084D01*
X52967365Y-44682334D01*
X53105913Y-44724363D01*
X53249998Y-44738554D01*
X53394083Y-44724363D01*
X53532631Y-44682334D01*
X53660317Y-44614084D01*
X53744191Y-44545251D01*
X57295251Y-40994192D01*
X57295255Y-40994187D01*
X58146545Y-40142898D01*
X66992697Y-40142898D01*
X66804489Y-40315432D01*
X66650201Y-40525949D01*
X66539947Y-40762521D01*
X66506395Y-40873129D01*
X66577283Y-41078949D01*
X67671051Y-41078949D01*
X67671051Y-40142898D01*
X67921051Y-40142898D01*
X67921051Y-40902170D01*
X67810192Y-41013029D01*
X67986971Y-41189808D01*
X68097830Y-41078949D01*
X69014819Y-41078949D01*
X69085707Y-40873129D01*
X68996387Y-40627886D01*
X68909968Y-40485540D01*
X68988163Y-40537788D01*
X69220198Y-40633900D01*
X69466525Y-40682898D01*
X69717679Y-40682898D01*
X69809409Y-40664652D01*
X70831228Y-41686471D01*
X70645678Y-41872021D01*
X70467841Y-42138172D01*
X70345346Y-42433903D01*
X70282898Y-42747849D01*
X70282898Y-43067947D01*
X70345346Y-43381893D01*
X70467841Y-43677624D01*
X70645678Y-43943775D01*
X70872021Y-44170118D01*
X71138172Y-44347955D01*
X71433903Y-44470450D01*
X71747849Y-44532898D01*
X72067947Y-44532898D01*
X72381893Y-44470450D01*
X72677624Y-44347955D01*
X72943775Y-44170118D01*
X73170118Y-43943775D01*
X73347955Y-43677624D01*
X73470450Y-43381893D01*
X73532898Y-43067947D01*
X73532898Y-42747849D01*
X73470450Y-42433903D01*
X73347955Y-42138172D01*
X73170118Y-41872021D01*
X72943775Y-41645678D01*
X72677624Y-41467841D01*
X72583770Y-41428966D01*
X72521985Y-41313374D01*
X72430136Y-41201456D01*
X72402091Y-41178440D01*
X70848856Y-39625205D01*
X70867102Y-39533475D01*
X70867102Y-39282321D01*
X70818104Y-39035994D01*
X70721992Y-38803959D01*
X70582459Y-38595133D01*
X70404867Y-38417541D01*
X70196041Y-38278008D01*
X69964006Y-38181896D01*
X69717679Y-38132898D01*
X69466525Y-38132898D01*
X69220198Y-38181896D01*
X68988163Y-38278008D01*
X68779337Y-38417541D01*
X68601745Y-38595133D01*
X68549784Y-38672898D01*
X57878203Y-38672898D01*
X57842098Y-38669342D01*
X57698013Y-38683533D01*
X57559464Y-38725561D01*
X57431778Y-38793811D01*
X57319860Y-38885660D01*
X57296844Y-38913705D01*
X56255809Y-39954741D01*
X56255804Y-39954745D01*
X52704745Y-43505805D01*
X52635912Y-43589679D01*
X52567662Y-43717365D01*
X52525633Y-43855913D01*
X52511442Y-43999998D01*
X33647369Y-43999998D01*
X47715292Y-30664781D01*
X51596468Y-30664781D01*
X51596468Y-31335219D01*
X51727264Y-31992774D01*
X51983829Y-32612177D01*
X52356304Y-33169625D01*
X52830375Y-33643696D01*
X53387823Y-34016171D01*
X54007226Y-34272736D01*
X54664781Y-34403532D01*
X55335219Y-34403532D01*
X55992774Y-34272736D01*
X56612177Y-34016171D01*
X57169625Y-33643696D01*
X57643696Y-33169625D01*
X58016171Y-32612177D01*
X58272736Y-31992774D01*
X58403532Y-31335219D01*
X58403532Y-30664781D01*
X58272736Y-30007226D01*
X58016171Y-29387823D01*
X57643696Y-28830375D01*
X57169625Y-28356304D01*
X56612177Y-27983829D01*
X55992774Y-27727264D01*
X55335219Y-27596468D01*
X54664781Y-27596468D01*
X54007226Y-27727264D01*
X53387823Y-27983829D01*
X52830375Y-28356304D01*
X52356304Y-28830375D01*
X51983829Y-29387823D01*
X51727264Y-30007226D01*
X51596468Y-30664781D01*
X47715292Y-30664781D01*
X51289440Y-27276787D01*
X51295025Y-27270341D01*
X51888053Y-26658253D01*
X52559035Y-26172432D01*
X53304179Y-25810512D01*
X54100850Y-25583482D01*
X54924847Y-25498241D01*
X55751120Y-25557380D01*
G37*
%TD.AperFunction*%
D18*
X64977762Y-52727762D02*
X64885913Y-52839680D01*
X64817663Y-52967367D01*
X64775635Y-53105915D01*
X64761444Y-53250000D01*
X64775635Y-53394085D01*
X64817663Y-53532633D01*
X64885913Y-53660320D01*
X64977762Y-53772238D01*
X65089680Y-53864087D01*
X65217367Y-53932337D01*
X65355915Y-53974365D01*
X65463895Y-53985000D01*
X79195554Y-53985000D01*
X79225554Y-54015000D01*
X63554449Y-54015000D01*
X62274448Y-52735000D01*
X64713895Y-52735000D01*
X64750000Y-52738556D01*
X64786105Y-52735000D01*
X64894085Y-52724365D01*
X65032633Y-52682337D01*
X65034008Y-52681602D01*
X64977762Y-52727762D01*
%TA.AperFunction,Conductor*%
D19*
G36*
X64977762Y-52727762D02*
G01*
X64885913Y-52839680D01*
X64817663Y-52967367D01*
X64775635Y-53105915D01*
X64761444Y-53250000D01*
X64775635Y-53394085D01*
X64817663Y-53532633D01*
X64885913Y-53660320D01*
X64977762Y-53772238D01*
X65089680Y-53864087D01*
X65217367Y-53932337D01*
X65355915Y-53974365D01*
X65463895Y-53985000D01*
X79195554Y-53985000D01*
X79225554Y-54015000D01*
X63554449Y-54015000D01*
X62274448Y-52735000D01*
X64713895Y-52735000D01*
X64750000Y-52738556D01*
X64786105Y-52735000D01*
X64894085Y-52724365D01*
X65032633Y-52682337D01*
X65034008Y-52681602D01*
X64977762Y-52727762D01*
G37*
%TD.AperFunction*%
D18*
X71525635Y-52105915D02*
X71511444Y-52250000D01*
X71525635Y-52394085D01*
X71562314Y-52515000D01*
X65463895Y-52515000D01*
X65355915Y-52525635D01*
X65217367Y-52567663D01*
X65215992Y-52568398D01*
X65272238Y-52522238D01*
X65295258Y-52494188D01*
X65804447Y-51985000D01*
X71562314Y-51985000D01*
X71525635Y-52105915D01*
%TA.AperFunction,Conductor*%
D19*
G36*
X71525635Y-52105915D02*
G01*
X71511444Y-52250000D01*
X71525635Y-52394085D01*
X71562314Y-52515000D01*
X65463895Y-52515000D01*
X65355915Y-52525635D01*
X65217367Y-52567663D01*
X65215992Y-52568398D01*
X65272238Y-52522238D01*
X65295258Y-52494188D01*
X65804447Y-51985000D01*
X71562314Y-51985000D01*
X71525635Y-52105915D01*
G37*
%TD.AperFunction*%
D18*
X44946499Y-53014054D02*
X44932337Y-52967367D01*
X44864087Y-52839680D01*
X44772238Y-52727762D01*
X44660320Y-52635913D01*
X44532633Y-52567663D01*
X44394085Y-52525635D01*
X44286105Y-52515000D01*
X38687686Y-52515000D01*
X38724365Y-52394085D01*
X38738556Y-52250000D01*
X38724365Y-52105915D01*
X38687686Y-51985000D01*
X45975553Y-51985000D01*
X44946499Y-53014054D01*
%TA.AperFunction,Conductor*%
D19*
G36*
X44946499Y-53014054D02*
G01*
X44932337Y-52967367D01*
X44864087Y-52839680D01*
X44772238Y-52727762D01*
X44660320Y-52635913D01*
X44532633Y-52567663D01*
X44394085Y-52525635D01*
X44286105Y-52515000D01*
X38687686Y-52515000D01*
X38724365Y-52394085D01*
X38738556Y-52250000D01*
X38724365Y-52105915D01*
X38687686Y-51985000D01*
X45975553Y-51985000D01*
X44946499Y-53014054D01*
G37*
%TD.AperFunction*%
%TD*%
M02*
