M48
; DRILL file {KiCad 5.1.9+dfsg1-1+deb11u1} date Tue Aug 15 12:15:36 2023
; FORMAT={-:-/ absolute / inch / decimal}
; #@! TF.CreationDate,2023-08-15T12:15:36+02:00
; #@! TF.GenerationSoftware,Kicad,Pcbnew,5.1.9+dfsg1-1+deb11u1
; #@! TF.FileFunction,Plated,1,2,PTH
FMAT,2
INCH
T1C0.0118
T2C0.0354
T3C0.0394
T4C0.0512
%
G90
G05
T1
X1.0433Y-2.8642
X1.0433Y-3.8484
X1.0827Y-2.6378
X1.0827Y-3.5827
X1.0827Y-4.5669
X1.1024Y-4.8327
X1.122Y-2.6083
X1.122Y-3.1299
X1.122Y-4.3307
X1.1614Y-2.3524
X1.1614Y-3.3366
X1.2008Y-2.1457
X1.2008Y-3.0512
X1.2008Y-4.0354
X1.2205Y-1.9783
X1.2362Y-2.8701
X1.2362Y-3.7677
X1.248Y-4.2362
X1.248Y-4.6614
X1.2598Y-2.0177
X1.2598Y-3.9567
X1.2598Y-4.7441
X1.2795Y-2.2638
X1.2913Y-1.8386
X1.4665Y-1.8898
X1.4764Y-1.811
X1.4961Y-2.0177
X1.4961Y-2.0571
X1.4961Y-4.7835
X1.7244Y-1.4094
X1.7244Y-2.0591
X1.7421Y-2.0177
X1.7421Y-2.0965
X1.8406Y-4.8228
X1.8996Y-1.7913
X1.9331Y-1.2205
X1.9872Y-2.0581
X1.9882Y-1.7913
X1.9882Y-2.0177
X2.0906Y-2.0197
X2.0965Y-1.7323
X2.0965Y-4.8622
X2.1535Y-4.8071
X2.2244Y-1.7323
X2.2244Y-4.8622
X2.2343Y-1.5945
X2.2343Y-1.9094
X2.3622Y-1.8504
X2.378Y-1.2205
X2.4114Y-2.0472
X2.4213Y-2.0866
X2.4488Y-1.3898
X2.5236Y-2.1142
X2.5353Y-1.6222
X2.5787Y-2.0177
X2.5787Y-2.0965
X2.5787Y-4.8228
X2.6063Y-2.0551
X2.8248Y-1.8898
X2.8248Y-2.0177
X2.8346Y-4.7835
X2.8445Y-2.0571
X3.0512Y-2.2638
X3.0709Y-2.0177
X3.0709Y-3.9764
X3.0709Y-4.7441
X3.0787Y-4.6654
X3.0866Y-4.2205
X3.0906Y-2.9528
X3.0906Y-3.7402
X3.1102Y-1.9783
X3.1299Y-3.0512
X3.1299Y-4.0354
X3.1299Y-2.1555
X3.1693Y-2.3622
X3.1693Y-3.3465
X3.2087Y-2.6083
X3.2087Y-3.1299
X3.2087Y-4.3307
X3.2283Y-4.8228
X3.248Y-2.6378
X3.248Y-3.5827
X3.248Y-4.5669
X3.2874Y-2.8642
X3.2874Y-3.8484
T2
X2.5984Y-1.6929
X2.6691Y-1.6222
X2.7398Y-1.5515
T3
X1.9654Y-2.1457
X2.0654Y-2.1457
X2.1654Y-2.1457
X2.2654Y-2.1457
X2.3654Y-2.1457
T4
X2.831Y-1.6893
X2.9724Y-1.8307
T0
M30
