%TF.GenerationSoftware,KiCad,Pcbnew,5.1.9+dfsg1-1+deb11u1*%
%TF.CreationDate,2023-08-15T12:15:31+02:00*%
%TF.ProjectId,label1,6c616265-6c31-42e6-9b69-6361645f7063,rev?*%
%TF.SameCoordinates,Original*%
%TF.FileFunction,Soldermask,Top*%
%TF.FilePolarity,Negative*%
%FSLAX46Y46*%
G04 Gerber Fmt 4.6, Leading zero omitted, Abs format (unit mm)*
G04 Created by KiCad (PCBNEW 5.1.9+dfsg1-1+deb11u1) date 2023-08-15 12:15:31*
%MOMM*%
%LPD*%
G01*
G04 APERTURE LIST*
%ADD10R,1.300000X0.800000*%
%ADD11C,1.800000*%
%ADD12C,0.100000*%
%ADD13C,2.500000*%
%ADD14O,1.700000X1.700000*%
%ADD15R,1.700000X1.700000*%
G04 APERTURE END LIST*
D10*
%TO.C,U1*%
X58150000Y-39050000D03*
X58150000Y-40330000D03*
X58150000Y-41590000D03*
X58150000Y-42860000D03*
X58150000Y-44140000D03*
X58150000Y-45410000D03*
X58150000Y-46670000D03*
X58150000Y-47950000D03*
X51850000Y-47950000D03*
X51850000Y-46670000D03*
X51850000Y-45410000D03*
X51850000Y-44140000D03*
X51850000Y-42860000D03*
X51850000Y-41590000D03*
X51850000Y-40330000D03*
X51850000Y-39050000D03*
%TD*%
D11*
%TO.C,U2*%
X69592102Y-39407898D03*
X67796051Y-41203949D03*
G36*
G01*
X65824355Y-44097147D02*
X64902853Y-43175645D01*
G75*
G02*
X64902853Y-42824355I175645J175645D01*
G01*
X65824355Y-41902853D01*
G75*
G02*
X66175645Y-41902853I175645J-175645D01*
G01*
X67097147Y-42824355D01*
G75*
G02*
X67097147Y-43175645I-175645J-175645D01*
G01*
X66175645Y-44097147D01*
G75*
G02*
X65824355Y-44097147I-175645J175645D01*
G01*
G37*
%TD*%
D12*
%TO.C,Q1*%
G36*
X42421751Y-41643934D02*
G01*
X41856066Y-41078249D01*
X43199569Y-39734746D01*
X43765254Y-40300431D01*
X42421751Y-41643934D01*
G37*
G36*
X40972182Y-44437006D02*
G01*
X40406497Y-43871321D01*
X41750000Y-42527818D01*
X42315685Y-43093503D01*
X40972182Y-44437006D01*
G37*
G36*
X39628679Y-43093503D02*
G01*
X39062994Y-42527818D01*
X40406497Y-41184315D01*
X40972182Y-41750000D01*
X39628679Y-43093503D01*
G37*
%TD*%
%TO.C,D41*%
G36*
X47310660Y-37744975D02*
G01*
X45755025Y-36189340D01*
X47310660Y-34633705D01*
X48866295Y-36189340D01*
X47310660Y-37744975D01*
G37*
G36*
X45613604Y-39442031D02*
G01*
X44057969Y-37886396D01*
X45189340Y-36755025D01*
X46744975Y-38310660D01*
X45613604Y-39442031D01*
G37*
%TD*%
%TO.C,C1*%
G36*
G01*
X70535072Y-46422034D02*
X71172034Y-45785072D01*
G75*
G02*
X71525022Y-45785072I176494J-176494D01*
G01*
X72020562Y-46280612D01*
G75*
G02*
X72020562Y-46633600I-176494J-176494D01*
G01*
X71383600Y-47270562D01*
G75*
G02*
X71030612Y-47270562I-176494J176494D01*
G01*
X70535072Y-46775022D01*
G75*
G02*
X70535072Y-46422034I176494J176494D01*
G01*
G37*
G36*
G01*
X68979438Y-44866400D02*
X69616400Y-44229438D01*
G75*
G02*
X69969388Y-44229438I176494J-176494D01*
G01*
X70464928Y-44724978D01*
G75*
G02*
X70464928Y-45077966I-176494J-176494D01*
G01*
X69827966Y-45714928D01*
G75*
G02*
X69474978Y-45714928I-176494J176494D01*
G01*
X68979438Y-45219388D01*
G75*
G02*
X68979438Y-44866400I176494J176494D01*
G01*
G37*
%TD*%
%TO.C,R13*%
G36*
G01*
X54100000Y-35875000D02*
X54100000Y-37125000D01*
G75*
G02*
X53850000Y-37375000I-250000J0D01*
G01*
X53050000Y-37375000D01*
G75*
G02*
X52800000Y-37125000I0J250000D01*
G01*
X52800000Y-35875000D01*
G75*
G02*
X53050000Y-35625000I250000J0D01*
G01*
X53850000Y-35625000D01*
G75*
G02*
X54100000Y-35875000I0J-250000D01*
G01*
G37*
G36*
G01*
X57200000Y-35875000D02*
X57200000Y-37125000D01*
G75*
G02*
X56950000Y-37375000I-250000J0D01*
G01*
X56150000Y-37375000D01*
G75*
G02*
X55900000Y-37125000I0J250000D01*
G01*
X55900000Y-35875000D01*
G75*
G02*
X56150000Y-35625000I250000J0D01*
G01*
X56950000Y-35625000D01*
G75*
G02*
X57200000Y-35875000I0J-250000D01*
G01*
G37*
%TD*%
D13*
%TO.C,J2*%
X71907898Y-42907898D03*
D12*
G36*
X77267767Y-46500000D02*
G01*
X75500000Y-48267767D01*
X73732233Y-46500000D01*
X75500000Y-44732233D01*
X77267767Y-46500000D01*
G37*
%TD*%
D14*
%TO.C,J1*%
X49920000Y-54500000D03*
X52460000Y-54500000D03*
X55000000Y-54500000D03*
X57540000Y-54500000D03*
D15*
X60080000Y-54500000D03*
%TD*%
%TO.C,R12*%
G36*
G01*
X37422034Y-45214928D02*
X36785072Y-44577966D01*
G75*
G02*
X36785072Y-44224978I176494J176494D01*
G01*
X37280612Y-43729438D01*
G75*
G02*
X37633600Y-43729438I176494J-176494D01*
G01*
X38270562Y-44366400D01*
G75*
G02*
X38270562Y-44719388I-176494J-176494D01*
G01*
X37775022Y-45214928D01*
G75*
G02*
X37422034Y-45214928I-176494J176494D01*
G01*
G37*
G36*
G01*
X35866400Y-46770562D02*
X35229438Y-46133600D01*
G75*
G02*
X35229438Y-45780612I176494J176494D01*
G01*
X35724978Y-45285072D01*
G75*
G02*
X36077966Y-45285072I176494J-176494D01*
G01*
X36714928Y-45922034D01*
G75*
G02*
X36714928Y-46275022I-176494J-176494D01*
G01*
X36219388Y-46770562D01*
G75*
G02*
X35866400Y-46770562I-176494J176494D01*
G01*
G37*
%TD*%
%TO.C,R10*%
G36*
G01*
X28250000Y-105049600D02*
X28250000Y-105950400D01*
G75*
G02*
X28000400Y-106200000I-249600J0D01*
G01*
X27299600Y-106200000D01*
G75*
G02*
X27050000Y-105950400I0J249600D01*
G01*
X27050000Y-105049600D01*
G75*
G02*
X27299600Y-104800000I249600J0D01*
G01*
X28000400Y-104800000D01*
G75*
G02*
X28250000Y-105049600I0J-249600D01*
G01*
G37*
G36*
G01*
X30450000Y-105049600D02*
X30450000Y-105950400D01*
G75*
G02*
X30200400Y-106200000I-249600J0D01*
G01*
X29499600Y-106200000D01*
G75*
G02*
X29250000Y-105950400I0J249600D01*
G01*
X29250000Y-105049600D01*
G75*
G02*
X29499600Y-104800000I249600J0D01*
G01*
X30200400Y-104800000D01*
G75*
G02*
X30450000Y-105049600I0J-249600D01*
G01*
G37*
%TD*%
%TO.C,R9*%
G36*
G01*
X28250000Y-99049600D02*
X28250000Y-99950400D01*
G75*
G02*
X28000400Y-100200000I-249600J0D01*
G01*
X27299600Y-100200000D01*
G75*
G02*
X27050000Y-99950400I0J249600D01*
G01*
X27050000Y-99049600D01*
G75*
G02*
X27299600Y-98800000I249600J0D01*
G01*
X28000400Y-98800000D01*
G75*
G02*
X28250000Y-99049600I0J-249600D01*
G01*
G37*
G36*
G01*
X30450000Y-99049600D02*
X30450000Y-99950400D01*
G75*
G02*
X30200400Y-100200000I-249600J0D01*
G01*
X29499600Y-100200000D01*
G75*
G02*
X29250000Y-99950400I0J249600D01*
G01*
X29250000Y-99049600D01*
G75*
G02*
X29499600Y-98800000I249600J0D01*
G01*
X30200400Y-98800000D01*
G75*
G02*
X30450000Y-99049600I0J-249600D01*
G01*
G37*
%TD*%
%TO.C,R8*%
G36*
G01*
X28250000Y-80299600D02*
X28250000Y-81200400D01*
G75*
G02*
X28000400Y-81450000I-249600J0D01*
G01*
X27299600Y-81450000D01*
G75*
G02*
X27050000Y-81200400I0J249600D01*
G01*
X27050000Y-80299600D01*
G75*
G02*
X27299600Y-80050000I249600J0D01*
G01*
X28000400Y-80050000D01*
G75*
G02*
X28250000Y-80299600I0J-249600D01*
G01*
G37*
G36*
G01*
X30450000Y-80299600D02*
X30450000Y-81200400D01*
G75*
G02*
X30200400Y-81450000I-249600J0D01*
G01*
X29499600Y-81450000D01*
G75*
G02*
X29250000Y-81200400I0J249600D01*
G01*
X29250000Y-80299600D01*
G75*
G02*
X29499600Y-80050000I249600J0D01*
G01*
X30200400Y-80050000D01*
G75*
G02*
X30450000Y-80299600I0J-249600D01*
G01*
G37*
%TD*%
%TO.C,R7*%
G36*
G01*
X28250000Y-67799600D02*
X28250000Y-68700400D01*
G75*
G02*
X28000400Y-68950000I-249600J0D01*
G01*
X27299600Y-68950000D01*
G75*
G02*
X27050000Y-68700400I0J249600D01*
G01*
X27050000Y-67799600D01*
G75*
G02*
X27299600Y-67550000I249600J0D01*
G01*
X28000400Y-67550000D01*
G75*
G02*
X28250000Y-67799600I0J-249600D01*
G01*
G37*
G36*
G01*
X30450000Y-67799600D02*
X30450000Y-68700400D01*
G75*
G02*
X30200400Y-68950000I-249600J0D01*
G01*
X29499600Y-68950000D01*
G75*
G02*
X29250000Y-68700400I0J249600D01*
G01*
X29250000Y-67799600D01*
G75*
G02*
X29499600Y-67550000I249600J0D01*
G01*
X30200400Y-67550000D01*
G75*
G02*
X30450000Y-67799600I0J-249600D01*
G01*
G37*
%TD*%
%TO.C,R6*%
G36*
G01*
X35799600Y-53150000D02*
X36700400Y-53150000D01*
G75*
G02*
X36950000Y-53399600I0J-249600D01*
G01*
X36950000Y-54100400D01*
G75*
G02*
X36700400Y-54350000I-249600J0D01*
G01*
X35799600Y-54350000D01*
G75*
G02*
X35550000Y-54100400I0J249600D01*
G01*
X35550000Y-53399600D01*
G75*
G02*
X35799600Y-53150000I249600J0D01*
G01*
G37*
G36*
G01*
X35799600Y-50950000D02*
X36700400Y-50950000D01*
G75*
G02*
X36950000Y-51199600I0J-249600D01*
G01*
X36950000Y-51900400D01*
G75*
G02*
X36700400Y-52150000I-249600J0D01*
G01*
X35799600Y-52150000D01*
G75*
G02*
X35550000Y-51900400I0J249600D01*
G01*
X35550000Y-51199600D01*
G75*
G02*
X35799600Y-50950000I249600J0D01*
G01*
G37*
%TD*%
%TO.C,R5*%
G36*
G01*
X73299600Y-53150000D02*
X74200400Y-53150000D01*
G75*
G02*
X74450000Y-53399600I0J-249600D01*
G01*
X74450000Y-54100400D01*
G75*
G02*
X74200400Y-54350000I-249600J0D01*
G01*
X73299600Y-54350000D01*
G75*
G02*
X73050000Y-54100400I0J249600D01*
G01*
X73050000Y-53399600D01*
G75*
G02*
X73299600Y-53150000I249600J0D01*
G01*
G37*
G36*
G01*
X73299600Y-50950000D02*
X74200400Y-50950000D01*
G75*
G02*
X74450000Y-51199600I0J-249600D01*
G01*
X74450000Y-51900400D01*
G75*
G02*
X74200400Y-52150000I-249600J0D01*
G01*
X73299600Y-52150000D01*
G75*
G02*
X73050000Y-51900400I0J249600D01*
G01*
X73050000Y-51199600D01*
G75*
G02*
X73299600Y-50950000I249600J0D01*
G01*
G37*
%TD*%
%TO.C,R4*%
G36*
G01*
X81600000Y-68700400D02*
X81600000Y-67799600D01*
G75*
G02*
X81849600Y-67550000I249600J0D01*
G01*
X82550400Y-67550000D01*
G75*
G02*
X82800000Y-67799600I0J-249600D01*
G01*
X82800000Y-68700400D01*
G75*
G02*
X82550400Y-68950000I-249600J0D01*
G01*
X81849600Y-68950000D01*
G75*
G02*
X81600000Y-68700400I0J249600D01*
G01*
G37*
G36*
G01*
X79400000Y-68700400D02*
X79400000Y-67799600D01*
G75*
G02*
X79649600Y-67550000I249600J0D01*
G01*
X80350400Y-67550000D01*
G75*
G02*
X80600000Y-67799600I0J-249600D01*
G01*
X80600000Y-68700400D01*
G75*
G02*
X80350400Y-68950000I-249600J0D01*
G01*
X79649600Y-68950000D01*
G75*
G02*
X79400000Y-68700400I0J249600D01*
G01*
G37*
%TD*%
%TO.C,R3*%
G36*
G01*
X81600000Y-81200400D02*
X81600000Y-80299600D01*
G75*
G02*
X81849600Y-80050000I249600J0D01*
G01*
X82550400Y-80050000D01*
G75*
G02*
X82800000Y-80299600I0J-249600D01*
G01*
X82800000Y-81200400D01*
G75*
G02*
X82550400Y-81450000I-249600J0D01*
G01*
X81849600Y-81450000D01*
G75*
G02*
X81600000Y-81200400I0J249600D01*
G01*
G37*
G36*
G01*
X79400000Y-81200400D02*
X79400000Y-80299600D01*
G75*
G02*
X79649600Y-80050000I249600J0D01*
G01*
X80350400Y-80050000D01*
G75*
G02*
X80600000Y-80299600I0J-249600D01*
G01*
X80600000Y-81200400D01*
G75*
G02*
X80350400Y-81450000I-249600J0D01*
G01*
X79649600Y-81450000D01*
G75*
G02*
X79400000Y-81200400I0J249600D01*
G01*
G37*
%TD*%
%TO.C,R2*%
G36*
G01*
X81600000Y-100200400D02*
X81600000Y-99299600D01*
G75*
G02*
X81849600Y-99050000I249600J0D01*
G01*
X82550400Y-99050000D01*
G75*
G02*
X82800000Y-99299600I0J-249600D01*
G01*
X82800000Y-100200400D01*
G75*
G02*
X82550400Y-100450000I-249600J0D01*
G01*
X81849600Y-100450000D01*
G75*
G02*
X81600000Y-100200400I0J249600D01*
G01*
G37*
G36*
G01*
X79400000Y-100200400D02*
X79400000Y-99299600D01*
G75*
G02*
X79649600Y-99050000I249600J0D01*
G01*
X80350400Y-99050000D01*
G75*
G02*
X80600000Y-99299600I0J-249600D01*
G01*
X80600000Y-100200400D01*
G75*
G02*
X80350400Y-100450000I-249600J0D01*
G01*
X79649600Y-100450000D01*
G75*
G02*
X79400000Y-100200400I0J249600D01*
G01*
G37*
%TD*%
%TO.C,R1*%
G36*
G01*
X81650000Y-106200400D02*
X81650000Y-105299600D01*
G75*
G02*
X81899600Y-105050000I249600J0D01*
G01*
X82600400Y-105050000D01*
G75*
G02*
X82850000Y-105299600I0J-249600D01*
G01*
X82850000Y-106200400D01*
G75*
G02*
X82600400Y-106450000I-249600J0D01*
G01*
X81899600Y-106450000D01*
G75*
G02*
X81650000Y-106200400I0J249600D01*
G01*
G37*
G36*
G01*
X79450000Y-106200400D02*
X79450000Y-105299600D01*
G75*
G02*
X79699600Y-105050000I249600J0D01*
G01*
X80400400Y-105050000D01*
G75*
G02*
X80650000Y-105299600I0J-249600D01*
G01*
X80650000Y-106200400D01*
G75*
G02*
X80400400Y-106450000I-249600J0D01*
G01*
X79699600Y-106450000D01*
G75*
G02*
X79450000Y-106200400I0J249600D01*
G01*
G37*
%TD*%
%TO.C,D40*%
G36*
G01*
X27050000Y-102049999D02*
X27050000Y-102950001D01*
G75*
G02*
X26800001Y-103200000I-249999J0D01*
G01*
X26149999Y-103200000D01*
G75*
G02*
X25900000Y-102950001I0J249999D01*
G01*
X25900000Y-102049999D01*
G75*
G02*
X26149999Y-101800000I249999J0D01*
G01*
X26800001Y-101800000D01*
G75*
G02*
X27050000Y-102049999I0J-249999D01*
G01*
G37*
G36*
G01*
X29100000Y-102049999D02*
X29100000Y-102950001D01*
G75*
G02*
X28850001Y-103200000I-249999J0D01*
G01*
X28199999Y-103200000D01*
G75*
G02*
X27950000Y-102950001I0J249999D01*
G01*
X27950000Y-102049999D01*
G75*
G02*
X28199999Y-101800000I249999J0D01*
G01*
X28850001Y-101800000D01*
G75*
G02*
X29100000Y-102049999I0J-249999D01*
G01*
G37*
%TD*%
%TO.C,D39*%
G36*
G01*
X27050000Y-77049999D02*
X27050000Y-77950001D01*
G75*
G02*
X26800001Y-78200000I-249999J0D01*
G01*
X26149999Y-78200000D01*
G75*
G02*
X25900000Y-77950001I0J249999D01*
G01*
X25900000Y-77049999D01*
G75*
G02*
X26149999Y-76800000I249999J0D01*
G01*
X26800001Y-76800000D01*
G75*
G02*
X27050000Y-77049999I0J-249999D01*
G01*
G37*
G36*
G01*
X29100000Y-77049999D02*
X29100000Y-77950001D01*
G75*
G02*
X28850001Y-78200000I-249999J0D01*
G01*
X28199999Y-78200000D01*
G75*
G02*
X27950000Y-77950001I0J249999D01*
G01*
X27950000Y-77049999D01*
G75*
G02*
X28199999Y-76800000I249999J0D01*
G01*
X28850001Y-76800000D01*
G75*
G02*
X29100000Y-77049999I0J-249999D01*
G01*
G37*
%TD*%
%TO.C,D38*%
G36*
G01*
X27585289Y-52135287D02*
X27135288Y-52914712D01*
G75*
G02*
X26793783Y-53006218I-216505J124999D01*
G01*
X26230864Y-52681217D01*
G75*
G02*
X26139359Y-52339713I125000J216505D01*
G01*
X26589360Y-51560288D01*
G75*
G02*
X26930865Y-51468782I216505J-124999D01*
G01*
X27493784Y-51793783D01*
G75*
G02*
X27585289Y-52135287I-125000J-216505D01*
G01*
G37*
G36*
G01*
X29360641Y-53160287D02*
X28910640Y-53939712D01*
G75*
G02*
X28569135Y-54031218I-216505J124999D01*
G01*
X28006216Y-53706217D01*
G75*
G02*
X27914711Y-53364713I125000J216505D01*
G01*
X28364712Y-52585288D01*
G75*
G02*
X28706217Y-52493782I216505J-124999D01*
G01*
X29269136Y-52818783D01*
G75*
G02*
X29360641Y-53160287I-125000J-216505D01*
G01*
G37*
%TD*%
%TO.C,D37*%
G36*
G01*
X52325001Y-50800000D02*
X51424999Y-50800000D01*
G75*
G02*
X51175000Y-50550001I0J249999D01*
G01*
X51175000Y-49899999D01*
G75*
G02*
X51424999Y-49650000I249999J0D01*
G01*
X52325001Y-49650000D01*
G75*
G02*
X52575000Y-49899999I0J-249999D01*
G01*
X52575000Y-50550001D01*
G75*
G02*
X52325001Y-50800000I-249999J0D01*
G01*
G37*
G36*
G01*
X52325001Y-52850000D02*
X51424999Y-52850000D01*
G75*
G02*
X51175000Y-52600001I0J249999D01*
G01*
X51175000Y-51949999D01*
G75*
G02*
X51424999Y-51700000I249999J0D01*
G01*
X52325001Y-51700000D01*
G75*
G02*
X52575000Y-51949999I0J-249999D01*
G01*
X52575000Y-52600001D01*
G75*
G02*
X52325001Y-52850000I-249999J0D01*
G01*
G37*
%TD*%
%TO.C,D36*%
G36*
G01*
X82950000Y-71700001D02*
X82950000Y-70799999D01*
G75*
G02*
X83199999Y-70550000I249999J0D01*
G01*
X83850001Y-70550000D01*
G75*
G02*
X84100000Y-70799999I0J-249999D01*
G01*
X84100000Y-71700001D01*
G75*
G02*
X83850001Y-71950000I-249999J0D01*
G01*
X83199999Y-71950000D01*
G75*
G02*
X82950000Y-71700001I0J249999D01*
G01*
G37*
G36*
G01*
X80900000Y-71700001D02*
X80900000Y-70799999D01*
G75*
G02*
X81149999Y-70550000I249999J0D01*
G01*
X81800001Y-70550000D01*
G75*
G02*
X82050000Y-70799999I0J-249999D01*
G01*
X82050000Y-71700001D01*
G75*
G02*
X81800001Y-71950000I-249999J0D01*
G01*
X81149999Y-71950000D01*
G75*
G02*
X80900000Y-71700001I0J249999D01*
G01*
G37*
%TD*%
%TO.C,D35*%
G36*
G01*
X82950000Y-96700001D02*
X82950000Y-95799999D01*
G75*
G02*
X83199999Y-95550000I249999J0D01*
G01*
X83850001Y-95550000D01*
G75*
G02*
X84100000Y-95799999I0J-249999D01*
G01*
X84100000Y-96700001D01*
G75*
G02*
X83850001Y-96950000I-249999J0D01*
G01*
X83199999Y-96950000D01*
G75*
G02*
X82950000Y-96700001I0J249999D01*
G01*
G37*
G36*
G01*
X80900000Y-96700001D02*
X80900000Y-95799999D01*
G75*
G02*
X81149999Y-95550000I249999J0D01*
G01*
X81800001Y-95550000D01*
G75*
G02*
X82050000Y-95799999I0J-249999D01*
G01*
X82050000Y-96700001D01*
G75*
G02*
X81800001Y-96950000I-249999J0D01*
G01*
X81149999Y-96950000D01*
G75*
G02*
X80900000Y-96700001I0J249999D01*
G01*
G37*
%TD*%
%TO.C,D34*%
G36*
G01*
X82414711Y-121614713D02*
X82864712Y-120835288D01*
G75*
G02*
X83206217Y-120743782I216505J-124999D01*
G01*
X83769136Y-121068783D01*
G75*
G02*
X83860641Y-121410287I-125000J-216505D01*
G01*
X83410640Y-122189712D01*
G75*
G02*
X83069135Y-122281218I-216505J124999D01*
G01*
X82506216Y-121956217D01*
G75*
G02*
X82414711Y-121614713I125000J216505D01*
G01*
G37*
G36*
G01*
X80639359Y-120589713D02*
X81089360Y-119810288D01*
G75*
G02*
X81430865Y-119718782I216505J-124999D01*
G01*
X81993784Y-120043783D01*
G75*
G02*
X82085289Y-120385287I-125000J-216505D01*
G01*
X81635288Y-121164712D01*
G75*
G02*
X81293783Y-121256218I-216505J124999D01*
G01*
X80730864Y-120931217D01*
G75*
G02*
X80639359Y-120589713I125000J216505D01*
G01*
G37*
%TD*%
%TO.C,D33*%
G36*
G01*
X57674999Y-122950000D02*
X58575001Y-122950000D01*
G75*
G02*
X58825000Y-123199999I0J-249999D01*
G01*
X58825000Y-123850001D01*
G75*
G02*
X58575001Y-124100000I-249999J0D01*
G01*
X57674999Y-124100000D01*
G75*
G02*
X57425000Y-123850001I0J249999D01*
G01*
X57425000Y-123199999D01*
G75*
G02*
X57674999Y-122950000I249999J0D01*
G01*
G37*
G36*
G01*
X57674999Y-120900000D02*
X58575001Y-120900000D01*
G75*
G02*
X58825000Y-121149999I0J-249999D01*
G01*
X58825000Y-121800001D01*
G75*
G02*
X58575001Y-122050000I-249999J0D01*
G01*
X57674999Y-122050000D01*
G75*
G02*
X57425000Y-121800001I0J249999D01*
G01*
X57425000Y-121149999D01*
G75*
G02*
X57674999Y-120900000I249999J0D01*
G01*
G37*
%TD*%
%TO.C,D32*%
G36*
G01*
X32674999Y-122950000D02*
X33575001Y-122950000D01*
G75*
G02*
X33825000Y-123199999I0J-249999D01*
G01*
X33825000Y-123850001D01*
G75*
G02*
X33575001Y-124100000I-249999J0D01*
G01*
X32674999Y-124100000D01*
G75*
G02*
X32425000Y-123850001I0J249999D01*
G01*
X32425000Y-123199999D01*
G75*
G02*
X32674999Y-122950000I249999J0D01*
G01*
G37*
G36*
G01*
X32674999Y-120900000D02*
X33575001Y-120900000D01*
G75*
G02*
X33825000Y-121149999I0J-249999D01*
G01*
X33825000Y-121800001D01*
G75*
G02*
X33575001Y-122050000I-249999J0D01*
G01*
X32674999Y-122050000D01*
G75*
G02*
X32425000Y-121800001I0J249999D01*
G01*
X32425000Y-121149999D01*
G75*
G02*
X32674999Y-120900000I249999J0D01*
G01*
G37*
%TD*%
%TO.C,D31*%
G36*
G01*
X27050000Y-83299999D02*
X27050000Y-84200001D01*
G75*
G02*
X26800001Y-84450000I-249999J0D01*
G01*
X26149999Y-84450000D01*
G75*
G02*
X25900000Y-84200001I0J249999D01*
G01*
X25900000Y-83299999D01*
G75*
G02*
X26149999Y-83050000I249999J0D01*
G01*
X26800001Y-83050000D01*
G75*
G02*
X27050000Y-83299999I0J-249999D01*
G01*
G37*
G36*
G01*
X29100000Y-83299999D02*
X29100000Y-84200001D01*
G75*
G02*
X28850001Y-84450000I-249999J0D01*
G01*
X28199999Y-84450000D01*
G75*
G02*
X27950000Y-84200001I0J249999D01*
G01*
X27950000Y-83299999D01*
G75*
G02*
X28199999Y-83050000I249999J0D01*
G01*
X28850001Y-83050000D01*
G75*
G02*
X29100000Y-83299999I0J-249999D01*
G01*
G37*
%TD*%
%TO.C,D30*%
G36*
G01*
X27050000Y-58299999D02*
X27050000Y-59200001D01*
G75*
G02*
X26800001Y-59450000I-249999J0D01*
G01*
X26149999Y-59450000D01*
G75*
G02*
X25900000Y-59200001I0J249999D01*
G01*
X25900000Y-58299999D01*
G75*
G02*
X26149999Y-58050000I249999J0D01*
G01*
X26800001Y-58050000D01*
G75*
G02*
X27050000Y-58299999I0J-249999D01*
G01*
G37*
G36*
G01*
X29100000Y-58299999D02*
X29100000Y-59200001D01*
G75*
G02*
X28850001Y-59450000I-249999J0D01*
G01*
X28199999Y-59450000D01*
G75*
G02*
X27950000Y-59200001I0J249999D01*
G01*
X27950000Y-58299999D01*
G75*
G02*
X28199999Y-58050000I249999J0D01*
G01*
X28850001Y-58050000D01*
G75*
G02*
X29100000Y-58299999I0J-249999D01*
G01*
G37*
%TD*%
%TO.C,D29*%
G36*
G01*
X46075001Y-50800000D02*
X45174999Y-50800000D01*
G75*
G02*
X44925000Y-50550001I0J249999D01*
G01*
X44925000Y-49899999D01*
G75*
G02*
X45174999Y-49650000I249999J0D01*
G01*
X46075001Y-49650000D01*
G75*
G02*
X46325000Y-49899999I0J-249999D01*
G01*
X46325000Y-50550001D01*
G75*
G02*
X46075001Y-50800000I-249999J0D01*
G01*
G37*
G36*
G01*
X46075001Y-52850000D02*
X45174999Y-52850000D01*
G75*
G02*
X44925000Y-52600001I0J249999D01*
G01*
X44925000Y-51949999D01*
G75*
G02*
X45174999Y-51700000I249999J0D01*
G01*
X46075001Y-51700000D01*
G75*
G02*
X46325000Y-51949999I0J-249999D01*
G01*
X46325000Y-52600001D01*
G75*
G02*
X46075001Y-52850000I-249999J0D01*
G01*
G37*
%TD*%
%TO.C,D28*%
G36*
G01*
X77325001Y-50800000D02*
X76424999Y-50800000D01*
G75*
G02*
X76175000Y-50550001I0J249999D01*
G01*
X76175000Y-49899999D01*
G75*
G02*
X76424999Y-49650000I249999J0D01*
G01*
X77325001Y-49650000D01*
G75*
G02*
X77575000Y-49899999I0J-249999D01*
G01*
X77575000Y-50550001D01*
G75*
G02*
X77325001Y-50800000I-249999J0D01*
G01*
G37*
G36*
G01*
X77325001Y-52850000D02*
X76424999Y-52850000D01*
G75*
G02*
X76175000Y-52600001I0J249999D01*
G01*
X76175000Y-51949999D01*
G75*
G02*
X76424999Y-51700000I249999J0D01*
G01*
X77325001Y-51700000D01*
G75*
G02*
X77575000Y-51949999I0J-249999D01*
G01*
X77575000Y-52600001D01*
G75*
G02*
X77325001Y-52850000I-249999J0D01*
G01*
G37*
%TD*%
%TO.C,D27*%
G36*
G01*
X82950000Y-90450001D02*
X82950000Y-89549999D01*
G75*
G02*
X83199999Y-89300000I249999J0D01*
G01*
X83850001Y-89300000D01*
G75*
G02*
X84100000Y-89549999I0J-249999D01*
G01*
X84100000Y-90450001D01*
G75*
G02*
X83850001Y-90700000I-249999J0D01*
G01*
X83199999Y-90700000D01*
G75*
G02*
X82950000Y-90450001I0J249999D01*
G01*
G37*
G36*
G01*
X80900000Y-90450001D02*
X80900000Y-89549999D01*
G75*
G02*
X81149999Y-89300000I249999J0D01*
G01*
X81800001Y-89300000D01*
G75*
G02*
X82050000Y-89549999I0J-249999D01*
G01*
X82050000Y-90450001D01*
G75*
G02*
X81800001Y-90700000I-249999J0D01*
G01*
X81149999Y-90700000D01*
G75*
G02*
X80900000Y-90450001I0J249999D01*
G01*
G37*
%TD*%
%TO.C,D26*%
G36*
G01*
X82950000Y-115450001D02*
X82950000Y-114549999D01*
G75*
G02*
X83199999Y-114300000I249999J0D01*
G01*
X83850001Y-114300000D01*
G75*
G02*
X84100000Y-114549999I0J-249999D01*
G01*
X84100000Y-115450001D01*
G75*
G02*
X83850001Y-115700000I-249999J0D01*
G01*
X83199999Y-115700000D01*
G75*
G02*
X82950000Y-115450001I0J249999D01*
G01*
G37*
G36*
G01*
X80900000Y-115450001D02*
X80900000Y-114549999D01*
G75*
G02*
X81149999Y-114300000I249999J0D01*
G01*
X81800001Y-114300000D01*
G75*
G02*
X82050000Y-114549999I0J-249999D01*
G01*
X82050000Y-115450001D01*
G75*
G02*
X81800001Y-115700000I-249999J0D01*
G01*
X81149999Y-115700000D01*
G75*
G02*
X80900000Y-115450001I0J249999D01*
G01*
G37*
%TD*%
%TO.C,D25*%
G36*
G01*
X63924999Y-122950000D02*
X64825001Y-122950000D01*
G75*
G02*
X65075000Y-123199999I0J-249999D01*
G01*
X65075000Y-123850001D01*
G75*
G02*
X64825001Y-124100000I-249999J0D01*
G01*
X63924999Y-124100000D01*
G75*
G02*
X63675000Y-123850001I0J249999D01*
G01*
X63675000Y-123199999D01*
G75*
G02*
X63924999Y-122950000I249999J0D01*
G01*
G37*
G36*
G01*
X63924999Y-120900000D02*
X64825001Y-120900000D01*
G75*
G02*
X65075000Y-121149999I0J-249999D01*
G01*
X65075000Y-121800001D01*
G75*
G02*
X64825001Y-122050000I-249999J0D01*
G01*
X63924999Y-122050000D01*
G75*
G02*
X63675000Y-121800001I0J249999D01*
G01*
X63675000Y-121149999D01*
G75*
G02*
X63924999Y-120900000I249999J0D01*
G01*
G37*
%TD*%
%TO.C,D24*%
G36*
G01*
X38924999Y-122950000D02*
X39825001Y-122950000D01*
G75*
G02*
X40075000Y-123199999I0J-249999D01*
G01*
X40075000Y-123850001D01*
G75*
G02*
X39825001Y-124100000I-249999J0D01*
G01*
X38924999Y-124100000D01*
G75*
G02*
X38675000Y-123850001I0J249999D01*
G01*
X38675000Y-123199999D01*
G75*
G02*
X38924999Y-122950000I249999J0D01*
G01*
G37*
G36*
G01*
X38924999Y-120900000D02*
X39825001Y-120900000D01*
G75*
G02*
X40075000Y-121149999I0J-249999D01*
G01*
X40075000Y-121800001D01*
G75*
G02*
X39825001Y-122050000I-249999J0D01*
G01*
X38924999Y-122050000D01*
G75*
G02*
X38675000Y-121800001I0J249999D01*
G01*
X38675000Y-121149999D01*
G75*
G02*
X38924999Y-120900000I249999J0D01*
G01*
G37*
%TD*%
%TO.C,D23*%
G36*
G01*
X27050000Y-108299999D02*
X27050000Y-109200001D01*
G75*
G02*
X26800001Y-109450000I-249999J0D01*
G01*
X26149999Y-109450000D01*
G75*
G02*
X25900000Y-109200001I0J249999D01*
G01*
X25900000Y-108299999D01*
G75*
G02*
X26149999Y-108050000I249999J0D01*
G01*
X26800001Y-108050000D01*
G75*
G02*
X27050000Y-108299999I0J-249999D01*
G01*
G37*
G36*
G01*
X29100000Y-108299999D02*
X29100000Y-109200001D01*
G75*
G02*
X28850001Y-109450000I-249999J0D01*
G01*
X28199999Y-109450000D01*
G75*
G02*
X27950000Y-109200001I0J249999D01*
G01*
X27950000Y-108299999D01*
G75*
G02*
X28199999Y-108050000I249999J0D01*
G01*
X28850001Y-108050000D01*
G75*
G02*
X29100000Y-108299999I0J-249999D01*
G01*
G37*
%TD*%
%TO.C,D22*%
G36*
G01*
X27050000Y-64549999D02*
X27050000Y-65450001D01*
G75*
G02*
X26800001Y-65700000I-249999J0D01*
G01*
X26149999Y-65700000D01*
G75*
G02*
X25900000Y-65450001I0J249999D01*
G01*
X25900000Y-64549999D01*
G75*
G02*
X26149999Y-64300000I249999J0D01*
G01*
X26800001Y-64300000D01*
G75*
G02*
X27050000Y-64549999I0J-249999D01*
G01*
G37*
G36*
G01*
X29100000Y-64549999D02*
X29100000Y-65450001D01*
G75*
G02*
X28850001Y-65700000I-249999J0D01*
G01*
X28199999Y-65700000D01*
G75*
G02*
X27950000Y-65450001I0J249999D01*
G01*
X27950000Y-64549999D01*
G75*
G02*
X28199999Y-64300000I249999J0D01*
G01*
X28850001Y-64300000D01*
G75*
G02*
X29100000Y-64549999I0J-249999D01*
G01*
G37*
%TD*%
%TO.C,D21*%
G36*
G01*
X39825001Y-50800000D02*
X38924999Y-50800000D01*
G75*
G02*
X38675000Y-50550001I0J249999D01*
G01*
X38675000Y-49899999D01*
G75*
G02*
X38924999Y-49650000I249999J0D01*
G01*
X39825001Y-49650000D01*
G75*
G02*
X40075000Y-49899999I0J-249999D01*
G01*
X40075000Y-50550001D01*
G75*
G02*
X39825001Y-50800000I-249999J0D01*
G01*
G37*
G36*
G01*
X39825001Y-52850000D02*
X38924999Y-52850000D01*
G75*
G02*
X38675000Y-52600001I0J249999D01*
G01*
X38675000Y-51949999D01*
G75*
G02*
X38924999Y-51700000I249999J0D01*
G01*
X39825001Y-51700000D01*
G75*
G02*
X40075000Y-51949999I0J-249999D01*
G01*
X40075000Y-52600001D01*
G75*
G02*
X39825001Y-52850000I-249999J0D01*
G01*
G37*
%TD*%
%TO.C,D20*%
G36*
G01*
X71075001Y-50800000D02*
X70174999Y-50800000D01*
G75*
G02*
X69925000Y-50550001I0J249999D01*
G01*
X69925000Y-49899999D01*
G75*
G02*
X70174999Y-49650000I249999J0D01*
G01*
X71075001Y-49650000D01*
G75*
G02*
X71325000Y-49899999I0J-249999D01*
G01*
X71325000Y-50550001D01*
G75*
G02*
X71075001Y-50800000I-249999J0D01*
G01*
G37*
G36*
G01*
X71075001Y-52850000D02*
X70174999Y-52850000D01*
G75*
G02*
X69925000Y-52600001I0J249999D01*
G01*
X69925000Y-51949999D01*
G75*
G02*
X70174999Y-51700000I249999J0D01*
G01*
X71075001Y-51700000D01*
G75*
G02*
X71325000Y-51949999I0J-249999D01*
G01*
X71325000Y-52600001D01*
G75*
G02*
X71075001Y-52850000I-249999J0D01*
G01*
G37*
%TD*%
%TO.C,D19*%
G36*
G01*
X82950000Y-65450001D02*
X82950000Y-64549999D01*
G75*
G02*
X83199999Y-64300000I249999J0D01*
G01*
X83850001Y-64300000D01*
G75*
G02*
X84100000Y-64549999I0J-249999D01*
G01*
X84100000Y-65450001D01*
G75*
G02*
X83850001Y-65700000I-249999J0D01*
G01*
X83199999Y-65700000D01*
G75*
G02*
X82950000Y-65450001I0J249999D01*
G01*
G37*
G36*
G01*
X80900000Y-65450001D02*
X80900000Y-64549999D01*
G75*
G02*
X81149999Y-64300000I249999J0D01*
G01*
X81800001Y-64300000D01*
G75*
G02*
X82050000Y-64549999I0J-249999D01*
G01*
X82050000Y-65450001D01*
G75*
G02*
X81800001Y-65700000I-249999J0D01*
G01*
X81149999Y-65700000D01*
G75*
G02*
X80900000Y-65450001I0J249999D01*
G01*
G37*
%TD*%
%TO.C,D18*%
G36*
G01*
X82950000Y-109200001D02*
X82950000Y-108299999D01*
G75*
G02*
X83199999Y-108050000I249999J0D01*
G01*
X83850001Y-108050000D01*
G75*
G02*
X84100000Y-108299999I0J-249999D01*
G01*
X84100000Y-109200001D01*
G75*
G02*
X83850001Y-109450000I-249999J0D01*
G01*
X83199999Y-109450000D01*
G75*
G02*
X82950000Y-109200001I0J249999D01*
G01*
G37*
G36*
G01*
X80900000Y-109200001D02*
X80900000Y-108299999D01*
G75*
G02*
X81149999Y-108050000I249999J0D01*
G01*
X81800001Y-108050000D01*
G75*
G02*
X82050000Y-108299999I0J-249999D01*
G01*
X82050000Y-109200001D01*
G75*
G02*
X81800001Y-109450000I-249999J0D01*
G01*
X81149999Y-109450000D01*
G75*
G02*
X80900000Y-109200001I0J249999D01*
G01*
G37*
%TD*%
%TO.C,D17*%
G36*
G01*
X70174999Y-122950000D02*
X71075001Y-122950000D01*
G75*
G02*
X71325000Y-123199999I0J-249999D01*
G01*
X71325000Y-123850001D01*
G75*
G02*
X71075001Y-124100000I-249999J0D01*
G01*
X70174999Y-124100000D01*
G75*
G02*
X69925000Y-123850001I0J249999D01*
G01*
X69925000Y-123199999D01*
G75*
G02*
X70174999Y-122950000I249999J0D01*
G01*
G37*
G36*
G01*
X70174999Y-120900000D02*
X71075001Y-120900000D01*
G75*
G02*
X71325000Y-121149999I0J-249999D01*
G01*
X71325000Y-121800001D01*
G75*
G02*
X71075001Y-122050000I-249999J0D01*
G01*
X70174999Y-122050000D01*
G75*
G02*
X69925000Y-121800001I0J249999D01*
G01*
X69925000Y-121149999D01*
G75*
G02*
X70174999Y-120900000I249999J0D01*
G01*
G37*
%TD*%
%TO.C,D16*%
G36*
G01*
X45174999Y-122950000D02*
X46075001Y-122950000D01*
G75*
G02*
X46325000Y-123199999I0J-249999D01*
G01*
X46325000Y-123850001D01*
G75*
G02*
X46075001Y-124100000I-249999J0D01*
G01*
X45174999Y-124100000D01*
G75*
G02*
X44925000Y-123850001I0J249999D01*
G01*
X44925000Y-123199999D01*
G75*
G02*
X45174999Y-122950000I249999J0D01*
G01*
G37*
G36*
G01*
X45174999Y-120900000D02*
X46075001Y-120900000D01*
G75*
G02*
X46325000Y-121149999I0J-249999D01*
G01*
X46325000Y-121800001D01*
G75*
G02*
X46075001Y-122050000I-249999J0D01*
G01*
X45174999Y-122050000D01*
G75*
G02*
X44925000Y-121800001I0J249999D01*
G01*
X44925000Y-121149999D01*
G75*
G02*
X45174999Y-120900000I249999J0D01*
G01*
G37*
%TD*%
%TO.C,D15*%
G36*
G01*
X27050000Y-114549999D02*
X27050000Y-115450001D01*
G75*
G02*
X26800001Y-115700000I-249999J0D01*
G01*
X26149999Y-115700000D01*
G75*
G02*
X25900000Y-115450001I0J249999D01*
G01*
X25900000Y-114549999D01*
G75*
G02*
X26149999Y-114300000I249999J0D01*
G01*
X26800001Y-114300000D01*
G75*
G02*
X27050000Y-114549999I0J-249999D01*
G01*
G37*
G36*
G01*
X29100000Y-114549999D02*
X29100000Y-115450001D01*
G75*
G02*
X28850001Y-115700000I-249999J0D01*
G01*
X28199999Y-115700000D01*
G75*
G02*
X27950000Y-115450001I0J249999D01*
G01*
X27950000Y-114549999D01*
G75*
G02*
X28199999Y-114300000I249999J0D01*
G01*
X28850001Y-114300000D01*
G75*
G02*
X29100000Y-114549999I0J-249999D01*
G01*
G37*
%TD*%
%TO.C,D14*%
G36*
G01*
X27050000Y-89549999D02*
X27050000Y-90450001D01*
G75*
G02*
X26800001Y-90700000I-249999J0D01*
G01*
X26149999Y-90700000D01*
G75*
G02*
X25900000Y-90450001I0J249999D01*
G01*
X25900000Y-89549999D01*
G75*
G02*
X26149999Y-89300000I249999J0D01*
G01*
X26800001Y-89300000D01*
G75*
G02*
X27050000Y-89549999I0J-249999D01*
G01*
G37*
G36*
G01*
X29100000Y-89549999D02*
X29100000Y-90450001D01*
G75*
G02*
X28850001Y-90700000I-249999J0D01*
G01*
X28199999Y-90700000D01*
G75*
G02*
X27950000Y-90450001I0J249999D01*
G01*
X27950000Y-89549999D01*
G75*
G02*
X28199999Y-89300000I249999J0D01*
G01*
X28850001Y-89300000D01*
G75*
G02*
X29100000Y-89549999I0J-249999D01*
G01*
G37*
%TD*%
%TO.C,D13*%
G36*
G01*
X33575001Y-50800000D02*
X32674999Y-50800000D01*
G75*
G02*
X32425000Y-50550001I0J249999D01*
G01*
X32425000Y-49899999D01*
G75*
G02*
X32674999Y-49650000I249999J0D01*
G01*
X33575001Y-49650000D01*
G75*
G02*
X33825000Y-49899999I0J-249999D01*
G01*
X33825000Y-50550001D01*
G75*
G02*
X33575001Y-50800000I-249999J0D01*
G01*
G37*
G36*
G01*
X33575001Y-52850000D02*
X32674999Y-52850000D01*
G75*
G02*
X32425000Y-52600001I0J249999D01*
G01*
X32425000Y-51949999D01*
G75*
G02*
X32674999Y-51700000I249999J0D01*
G01*
X33575001Y-51700000D01*
G75*
G02*
X33825000Y-51949999I0J-249999D01*
G01*
X33825000Y-52600001D01*
G75*
G02*
X33575001Y-52850000I-249999J0D01*
G01*
G37*
%TD*%
%TO.C,D12*%
G36*
G01*
X64825001Y-50800000D02*
X63924999Y-50800000D01*
G75*
G02*
X63675000Y-50550001I0J249999D01*
G01*
X63675000Y-49899999D01*
G75*
G02*
X63924999Y-49650000I249999J0D01*
G01*
X64825001Y-49650000D01*
G75*
G02*
X65075000Y-49899999I0J-249999D01*
G01*
X65075000Y-50550001D01*
G75*
G02*
X64825001Y-50800000I-249999J0D01*
G01*
G37*
G36*
G01*
X64825001Y-52850000D02*
X63924999Y-52850000D01*
G75*
G02*
X63675000Y-52600001I0J249999D01*
G01*
X63675000Y-51949999D01*
G75*
G02*
X63924999Y-51700000I249999J0D01*
G01*
X64825001Y-51700000D01*
G75*
G02*
X65075000Y-51949999I0J-249999D01*
G01*
X65075000Y-52600001D01*
G75*
G02*
X64825001Y-52850000I-249999J0D01*
G01*
G37*
%TD*%
%TO.C,D11*%
G36*
G01*
X82950000Y-59200001D02*
X82950000Y-58299999D01*
G75*
G02*
X83199999Y-58050000I249999J0D01*
G01*
X83850001Y-58050000D01*
G75*
G02*
X84100000Y-58299999I0J-249999D01*
G01*
X84100000Y-59200001D01*
G75*
G02*
X83850001Y-59450000I-249999J0D01*
G01*
X83199999Y-59450000D01*
G75*
G02*
X82950000Y-59200001I0J249999D01*
G01*
G37*
G36*
G01*
X80900000Y-59200001D02*
X80900000Y-58299999D01*
G75*
G02*
X81149999Y-58050000I249999J0D01*
G01*
X81800001Y-58050000D01*
G75*
G02*
X82050000Y-58299999I0J-249999D01*
G01*
X82050000Y-59200001D01*
G75*
G02*
X81800001Y-59450000I-249999J0D01*
G01*
X81149999Y-59450000D01*
G75*
G02*
X80900000Y-59200001I0J249999D01*
G01*
G37*
%TD*%
%TO.C,D10*%
G36*
G01*
X82950000Y-84200001D02*
X82950000Y-83299999D01*
G75*
G02*
X83199999Y-83050000I249999J0D01*
G01*
X83850001Y-83050000D01*
G75*
G02*
X84100000Y-83299999I0J-249999D01*
G01*
X84100000Y-84200001D01*
G75*
G02*
X83850001Y-84450000I-249999J0D01*
G01*
X83199999Y-84450000D01*
G75*
G02*
X82950000Y-84200001I0J249999D01*
G01*
G37*
G36*
G01*
X80900000Y-84200001D02*
X80900000Y-83299999D01*
G75*
G02*
X81149999Y-83050000I249999J0D01*
G01*
X81800001Y-83050000D01*
G75*
G02*
X82050000Y-83299999I0J-249999D01*
G01*
X82050000Y-84200001D01*
G75*
G02*
X81800001Y-84450000I-249999J0D01*
G01*
X81149999Y-84450000D01*
G75*
G02*
X80900000Y-84200001I0J249999D01*
G01*
G37*
%TD*%
%TO.C,D9*%
G36*
G01*
X76424999Y-122950000D02*
X77325001Y-122950000D01*
G75*
G02*
X77575000Y-123199999I0J-249999D01*
G01*
X77575000Y-123850001D01*
G75*
G02*
X77325001Y-124100000I-249999J0D01*
G01*
X76424999Y-124100000D01*
G75*
G02*
X76175000Y-123850001I0J249999D01*
G01*
X76175000Y-123199999D01*
G75*
G02*
X76424999Y-122950000I249999J0D01*
G01*
G37*
G36*
G01*
X76424999Y-120900000D02*
X77325001Y-120900000D01*
G75*
G02*
X77575000Y-121149999I0J-249999D01*
G01*
X77575000Y-121800001D01*
G75*
G02*
X77325001Y-122050000I-249999J0D01*
G01*
X76424999Y-122050000D01*
G75*
G02*
X76175000Y-121800001I0J249999D01*
G01*
X76175000Y-121149999D01*
G75*
G02*
X76424999Y-120900000I249999J0D01*
G01*
G37*
%TD*%
%TO.C,D8*%
G36*
G01*
X51424999Y-122950000D02*
X52325001Y-122950000D01*
G75*
G02*
X52575000Y-123199999I0J-249999D01*
G01*
X52575000Y-123850001D01*
G75*
G02*
X52325001Y-124100000I-249999J0D01*
G01*
X51424999Y-124100000D01*
G75*
G02*
X51175000Y-123850001I0J249999D01*
G01*
X51175000Y-123199999D01*
G75*
G02*
X51424999Y-122950000I249999J0D01*
G01*
G37*
G36*
G01*
X51424999Y-120900000D02*
X52325001Y-120900000D01*
G75*
G02*
X52575000Y-121149999I0J-249999D01*
G01*
X52575000Y-121800001D01*
G75*
G02*
X52325001Y-122050000I-249999J0D01*
G01*
X51424999Y-122050000D01*
G75*
G02*
X51175000Y-121800001I0J249999D01*
G01*
X51175000Y-121149999D01*
G75*
G02*
X51424999Y-120900000I249999J0D01*
G01*
G37*
%TD*%
%TO.C,D7*%
G36*
G01*
X27135288Y-120835288D02*
X27585289Y-121614712D01*
G75*
G02*
X27493784Y-121956217I-216505J-125000D01*
G01*
X26930865Y-122281218D01*
G75*
G02*
X26589360Y-122189712I-125000J216505D01*
G01*
X26139359Y-121410287D01*
G75*
G02*
X26230865Y-121068783I216505J124999D01*
G01*
X26793784Y-120743782D01*
G75*
G02*
X27135288Y-120835288I124999J-216505D01*
G01*
G37*
G36*
G01*
X28910640Y-119810288D02*
X29360641Y-120589712D01*
G75*
G02*
X29269136Y-120931217I-216505J-125000D01*
G01*
X28706217Y-121256218D01*
G75*
G02*
X28364712Y-121164712I-125000J216505D01*
G01*
X27914711Y-120385287D01*
G75*
G02*
X28006217Y-120043783I216505J124999D01*
G01*
X28569136Y-119718782D01*
G75*
G02*
X28910640Y-119810288I124999J-216505D01*
G01*
G37*
%TD*%
%TO.C,D6*%
G36*
G01*
X27050000Y-95799999D02*
X27050000Y-96700001D01*
G75*
G02*
X26800001Y-96950000I-249999J0D01*
G01*
X26149999Y-96950000D01*
G75*
G02*
X25900000Y-96700001I0J249999D01*
G01*
X25900000Y-95799999D01*
G75*
G02*
X26149999Y-95550000I249999J0D01*
G01*
X26800001Y-95550000D01*
G75*
G02*
X27050000Y-95799999I0J-249999D01*
G01*
G37*
G36*
G01*
X29100000Y-95799999D02*
X29100000Y-96700001D01*
G75*
G02*
X28850001Y-96950000I-249999J0D01*
G01*
X28199999Y-96950000D01*
G75*
G02*
X27950000Y-96700001I0J249999D01*
G01*
X27950000Y-95799999D01*
G75*
G02*
X28199999Y-95550000I249999J0D01*
G01*
X28850001Y-95550000D01*
G75*
G02*
X29100000Y-95799999I0J-249999D01*
G01*
G37*
%TD*%
%TO.C,D5*%
G36*
G01*
X27050000Y-70799999D02*
X27050000Y-71700001D01*
G75*
G02*
X26800001Y-71950000I-249999J0D01*
G01*
X26149999Y-71950000D01*
G75*
G02*
X25900000Y-71700001I0J249999D01*
G01*
X25900000Y-70799999D01*
G75*
G02*
X26149999Y-70550000I249999J0D01*
G01*
X26800001Y-70550000D01*
G75*
G02*
X27050000Y-70799999I0J-249999D01*
G01*
G37*
G36*
G01*
X29100000Y-70799999D02*
X29100000Y-71700001D01*
G75*
G02*
X28850001Y-71950000I-249999J0D01*
G01*
X28199999Y-71950000D01*
G75*
G02*
X27950000Y-71700001I0J249999D01*
G01*
X27950000Y-70799999D01*
G75*
G02*
X28199999Y-70550000I249999J0D01*
G01*
X28850001Y-70550000D01*
G75*
G02*
X29100000Y-70799999I0J-249999D01*
G01*
G37*
%TD*%
%TO.C,D4*%
G36*
G01*
X58575001Y-50800000D02*
X57674999Y-50800000D01*
G75*
G02*
X57425000Y-50550001I0J249999D01*
G01*
X57425000Y-49899999D01*
G75*
G02*
X57674999Y-49650000I249999J0D01*
G01*
X58575001Y-49650000D01*
G75*
G02*
X58825000Y-49899999I0J-249999D01*
G01*
X58825000Y-50550001D01*
G75*
G02*
X58575001Y-50800000I-249999J0D01*
G01*
G37*
G36*
G01*
X58575001Y-52850000D02*
X57674999Y-52850000D01*
G75*
G02*
X57425000Y-52600001I0J249999D01*
G01*
X57425000Y-51949999D01*
G75*
G02*
X57674999Y-51700000I249999J0D01*
G01*
X58575001Y-51700000D01*
G75*
G02*
X58825000Y-51949999I0J-249999D01*
G01*
X58825000Y-52600001D01*
G75*
G02*
X58575001Y-52850000I-249999J0D01*
G01*
G37*
%TD*%
%TO.C,D3*%
G36*
G01*
X82864712Y-52914712D02*
X82414711Y-52135287D01*
G75*
G02*
X82506217Y-51793783I216505J124999D01*
G01*
X83069136Y-51468782D01*
G75*
G02*
X83410640Y-51560288I124999J-216505D01*
G01*
X83860641Y-52339713D01*
G75*
G02*
X83769136Y-52681217I-216505J-124999D01*
G01*
X83206217Y-53006218D01*
G75*
G02*
X82864712Y-52914712I-125000J216505D01*
G01*
G37*
G36*
G01*
X81089360Y-53939712D02*
X80639359Y-53160287D01*
G75*
G02*
X80730865Y-52818783I216505J124999D01*
G01*
X81293784Y-52493782D01*
G75*
G02*
X81635288Y-52585288I124999J-216505D01*
G01*
X82085289Y-53364713D01*
G75*
G02*
X81993784Y-53706217I-216505J-124999D01*
G01*
X81430865Y-54031218D01*
G75*
G02*
X81089360Y-53939712I-125000J216505D01*
G01*
G37*
%TD*%
%TO.C,D2*%
G36*
G01*
X82950000Y-77950001D02*
X82950000Y-77049999D01*
G75*
G02*
X83199999Y-76800000I249999J0D01*
G01*
X83850001Y-76800000D01*
G75*
G02*
X84100000Y-77049999I0J-249999D01*
G01*
X84100000Y-77950001D01*
G75*
G02*
X83850001Y-78200000I-249999J0D01*
G01*
X83199999Y-78200000D01*
G75*
G02*
X82950000Y-77950001I0J249999D01*
G01*
G37*
G36*
G01*
X80900000Y-77950001D02*
X80900000Y-77049999D01*
G75*
G02*
X81149999Y-76800000I249999J0D01*
G01*
X81800001Y-76800000D01*
G75*
G02*
X82050000Y-77049999I0J-249999D01*
G01*
X82050000Y-77950001D01*
G75*
G02*
X81800001Y-78200000I-249999J0D01*
G01*
X81149999Y-78200000D01*
G75*
G02*
X80900000Y-77950001I0J249999D01*
G01*
G37*
%TD*%
%TO.C,D1*%
G36*
G01*
X82950000Y-102950001D02*
X82950000Y-102049999D01*
G75*
G02*
X83199999Y-101800000I249999J0D01*
G01*
X83850001Y-101800000D01*
G75*
G02*
X84100000Y-102049999I0J-249999D01*
G01*
X84100000Y-102950001D01*
G75*
G02*
X83850001Y-103200000I-249999J0D01*
G01*
X83199999Y-103200000D01*
G75*
G02*
X82950000Y-102950001I0J249999D01*
G01*
G37*
G36*
G01*
X80900000Y-102950001D02*
X80900000Y-102049999D01*
G75*
G02*
X81149999Y-101800000I249999J0D01*
G01*
X81800001Y-101800000D01*
G75*
G02*
X82050000Y-102049999I0J-249999D01*
G01*
X82050000Y-102950001D01*
G75*
G02*
X81800001Y-103200000I-249999J0D01*
G01*
X81149999Y-103200000D01*
G75*
G02*
X80900000Y-102950001I0J249999D01*
G01*
G37*
%TD*%
M02*
